<svg width="26" height="41" viewBox="0 0 26 41" fill="none" xmlns="http://www.w3.org/2000/svg">
<path d="M4.47735 13.798L10.5372 9.3441C11.2175 8.84035 12.045 8.5817 12.8875 8.60943C13.9151 8.63535 14.9093 8.98462 15.7318 9.60865C16.5541 10.2327 17.164 11.1005 17.4764 12.0915C17.8281 13.2069 18.1495 13.9607 18.4407 14.3529C19.3205 15.5406 20.4617 16.5045 21.7739 17.168C23.0861 17.8317 24.5331 18.1764 26 18.1755V22.0019C24.0474 22.004 22.1186 21.5681 20.3524 20.7256C18.5863 19.883 17.0268 18.6545 15.786 17.1289L14.4682 24.6957L18.3651 28.0055L22.5682 39.6914L19.0136 41L15.1564 30.2784L8.74672 24.8353C8.22071 24.4056 7.8182 23.8408 7.5811 23.2003C7.34399 22.5596 7.28097 21.8662 7.3986 21.1926L8.361 15.673L7.08095 16.6143L3.05927 22.2161L0 19.9662L4.44521 13.7751L4.47735 13.798ZM15.6007 7.65282C14.5979 7.65282 13.636 7.24969 12.9268 6.53209C12.2176 5.8145 11.8192 4.84123 11.8192 3.82641C11.8192 2.81159 12.2176 1.83832 12.9268 1.12074C13.636 0.403131 14.5979 0 15.6007 0C16.6038 0 17.5656 0.403131 18.2747 1.12074C18.9839 1.83832 19.3823 2.81159 19.3823 3.82641C19.3823 4.84123 18.9839 5.8145 18.2747 6.53209C17.5656 7.24969 16.6038 7.65282 15.6007 7.65282ZM9.98136 32.8708L3.90445 40.1984L1.00778 37.7399L6.63473 30.9557L8.04524 26.7849L11.4316 29.6547L9.98136 32.8708Z" fill="#FF974D"/>
</svg>
