<svg width="57" height="57" viewBox="0 0 57 57" fill="none" xmlns="http://www.w3.org/2000/svg">
<path d="M23.5869 28.5009C23.5845 28.831 23.6174 29.1605 23.6851 29.4836H0.982786C0.722135 29.4836 0.472159 29.3801 0.287851 29.1958C0.103543 29.0115 0 28.7615 0 28.5009C0 28.2402 0.103543 27.9902 0.287851 27.8059C0.472159 27.6216 0.722135 27.5181 0.982786 27.5181H23.6851C23.6174 27.8412 23.5845 28.1707 23.5869 28.5009Z" fill="#7F87FC"/>
<path d="M29.4841 33.3164V56.0188C29.4841 56.2794 29.3806 56.5294 29.1963 56.7137C29.012 56.898 28.762 57.0015 28.5013 57.0015C28.2407 57.0015 27.9907 56.898 27.8064 56.7137C27.6221 56.5294 27.5186 56.2794 27.5186 56.0188V33.3164C28.1665 33.4541 28.8362 33.4541 29.4841 33.3164Z" fill="#7F87FC"/>
<path d="M57.0015 28.5009C57.0015 28.7615 56.898 29.0115 56.7137 29.1958C56.5294 29.3801 56.2794 29.4836 56.0188 29.4836H33.3164C33.4541 28.8357 33.4541 28.166 33.3164 27.5181H56.0188C56.2794 27.5181 56.5294 27.6216 56.7137 27.8059C56.898 27.9902 57.0015 28.2402 57.0015 28.5009Z" fill="#7F87FC"/>
<path d="M29.4841 0.982786V23.6851C28.8362 23.5474 28.1665 23.5474 27.5186 23.6851V0.982786C27.5186 0.722135 27.6221 0.472159 27.8064 0.287851C27.9907 0.103543 28.2407 0 28.5013 0C28.762 0 29.012 0.103543 29.1963 0.287851C29.3806 0.472159 29.4841 0.722135 29.4841 0.982786Z" fill="#7F87FC"/>
<path d="M53.069 27.518C52.8264 21.3399 50.2635 15.4804 45.8916 11.1085C41.5197 6.7366 35.6602 4.17371 29.4821 3.93115C28.8237 3.93115 28.175 3.93115 27.5165 3.93115C21.3385 4.17371 15.479 6.7366 11.1071 11.1085C6.73514 15.4804 4.17224 21.3399 3.92969 27.518V29.4836C4.17224 35.6617 6.73514 41.5212 11.1071 45.8931C15.479 50.265 21.3385 52.8279 27.5165 53.0704H29.4821C35.6602 52.8279 41.5197 50.265 45.8916 45.8931C50.2635 41.5212 52.8264 35.6617 53.069 29.4836C53.069 28.8251 53.069 28.1765 53.069 27.518ZM29.4821 51.1049C28.8275 51.1442 28.1712 51.1442 27.5165 51.1049C21.8596 50.8638 16.4991 48.5085 12.4953 44.5048C8.49163 40.5011 6.1363 35.1406 5.89526 29.4836C5.85594 28.829 5.85594 28.1726 5.89526 27.518C6.1363 21.861 8.49163 16.5005 12.4953 12.4968C16.4991 8.4931 21.8596 6.13777 27.5165 5.89672C28.1712 5.85741 28.8275 5.85741 29.4821 5.89672C35.1391 6.13777 40.4996 8.4931 44.5033 12.4968C48.507 16.5005 50.8624 21.861 51.1034 27.518C51.1427 28.1726 51.1427 28.829 51.1034 29.4836C50.8624 35.1406 48.507 40.5011 44.5033 44.5048C40.4996 48.5085 35.1391 50.8638 29.4821 51.1049Z" fill="#7F87FC"/>
<path d="M44.2267 27.5183C43.9937 23.6848 42.3658 20.069 39.65 17.3532C36.9343 14.6375 33.3185 13.0095 29.4849 12.7766C28.8303 12.7372 28.1739 12.7372 27.5193 12.7766C23.6857 13.0095 20.07 14.6375 17.3542 17.3532C14.6384 20.069 13.0105 23.6848 12.7775 27.5183C12.7382 28.1729 12.7382 28.8293 12.7775 29.4839C13.0105 33.3175 14.6384 36.9333 17.3542 39.649C20.07 42.3648 23.6857 43.9927 27.5193 44.2257C28.1739 44.265 28.8303 44.265 29.4849 44.2257C33.3185 43.9927 36.9343 42.3648 39.65 39.649C42.3658 36.9333 43.9937 33.3175 44.2267 29.4839C44.266 28.8293 44.266 28.1729 44.2267 27.5183ZM29.4849 42.2601C28.831 42.3191 28.1732 42.3191 27.5193 42.2601C24.2065 42.0309 21.0883 40.6112 18.7402 38.263C16.3921 35.9149 14.9724 32.7968 14.7431 29.4839C14.6841 28.8301 14.6841 28.1722 14.7431 27.5183C14.9724 24.2055 16.3921 21.0874 18.7402 18.7392C21.0883 16.3911 24.2065 14.9714 27.5193 14.7421C28.1732 14.6831 28.831 14.6831 29.4849 14.7421C32.7977 14.9714 35.9159 16.3911 38.264 18.7392C40.6122 21.0874 42.0318 24.2055 42.2611 27.5183C42.3201 28.1722 42.3201 28.8301 42.2611 29.4839C42.0318 32.7968 40.6122 35.9149 38.264 38.263C35.9159 40.6112 32.7977 42.0309 29.4849 42.2601Z" fill="#7F87FC"/>
<path d="M31.4504 28.5007C31.4504 32.3041 25.5537 32.2943 25.5537 28.5007C25.5537 24.7072 31.4504 24.6973 31.4504 28.5007Z" fill="#7F87FC"/>
<path d="M31.4504 28.5007C31.4504 32.3041 25.5537 32.2943 25.5537 28.5007C25.5537 24.7072 31.4504 24.6973 31.4504 28.5007Z" fill="#7F87FC"/>
</svg>
