<svg width="800" height="800" viewBox="0 0 800 800" fill="none" xmlns="http://www.w3.org/2000/svg">
<rect width="800" height="800" rx="400" fill="#7F87FC"/>
<path d="M400 0C293.913 0 192.172 42.1427 117.157 117.157C42.1427 192.172 0 293.913 0 400C0.0141537 413.659 0.755946 427.308 2.22222 440.889C12.6218 539.137 59.013 630.06 132.458 696.141C205.902 762.221 301.203 798.784 400 798.784C498.797 798.784 594.098 762.221 667.542 696.141C740.987 630.06 787.378 539.137 797.778 440.889C799.244 427.308 799.986 413.659 800 400C800 293.913 757.857 192.172 682.843 117.157C607.828 42.1427 506.087 0 400 0ZM640.889 596.444C640.444 596.444 638.222 600 637.778 600C608.682 634.782 572.31 662.758 531.226 681.954C490.142 701.15 445.347 711.099 400 711.099C354.653 711.099 309.858 701.15 268.774 681.954C227.69 662.758 191.318 634.782 162.222 600C161.778 600 159.556 596.444 159.111 596.444C156.67 592.903 155.284 588.742 155.111 584.444C155.194 579.782 156.68 575.252 159.376 571.447C162.071 567.641 165.851 564.736 170.222 563.111C203.111 552 234.667 541.333 243.556 539.111C243.349 538.109 243.361 537.074 243.591 536.077C243.821 535.079 244.264 534.144 244.889 533.333C246.054 529.031 248.512 525.19 251.929 522.329C255.347 519.468 259.56 517.724 264 517.333L320.444 512.889C319.969 500.743 317.099 488.811 312 477.778V477.333C307.237 464.779 300.484 453.074 292 442.667C268.758 412.346 256.391 375.089 256.889 336.889C254.431 297.605 267.489 258.926 293.255 229.171C319.02 199.416 355.435 180.962 394.667 177.778H405.333C444.565 180.962 480.98 199.416 506.745 229.171C532.511 258.926 545.569 297.605 543.111 336.889C543.609 375.089 531.242 412.346 508 442.667C499.516 453.074 492.762 464.779 488 477.333V477.778C482.901 488.811 480.031 500.743 479.556 512.889L536 517.333C540.44 517.724 544.653 519.468 548.071 522.329C551.488 525.19 553.946 529.031 555.111 533.333C555.736 534.144 556.179 535.079 556.409 536.077C556.639 537.074 556.651 538.109 556.444 539.111C565.333 541.333 596.889 552 629.778 563.111C633.036 564.157 636.003 565.956 638.436 568.362C640.87 570.768 642.702 573.714 643.784 576.961C644.866 580.207 645.168 583.664 644.665 587.049C644.162 590.434 642.868 593.653 640.889 596.444Z" fill="white"/>
</svg>
