<svg width="44" height="42" viewBox="0 0 44 42" fill="none" xmlns="http://www.w3.org/2000/svg">
<path d="M26.7398 13.3923C24.1317 13.3923 24.0039 12.5452 24.0039 10.9213V2.05705C24.0039 0.922866 23.081 0 21.9468 0C20.8126 0 19.8898 0.922866 19.8898 2.05705V10.9213C19.8898 12.5452 19.762 13.3923 17.1531 13.3923C16.9636 13.3923 16.8042 13.5457 16.8042 13.7352V17.1638C16.8042 17.3533 16.965 17.5067 17.1545 17.5067C19.1923 17.5067 20.8049 17.0395 21.9458 16.1173C23.087 17.0395 24.7024 17.5067 26.7398 17.5067C26.9294 17.5067 27.0895 17.3533 27.0895 17.1638V13.7352C27.0895 13.5457 26.9294 13.3923 26.7398 13.3923Z" fill="#FAB515"/>
<path d="M17.9926 22.5445C17.7511 20.3772 17.5022 18.1351 17.5022 15.9629C17.5022 10.45 16.8988 3.12109 11.6859 3.12109C5.34801 3.12109 0.000366639 19.9489 0.000366639 30.5154C-0.00209059 30.8489 -0.0410553 38.7102 2.11183 40.8803C2.50429 41.2756 2.9515 41.4764 3.4419 41.4764C4.73756 41.4764 5.3817 40.9814 6.27368 40.2973C7.39277 39.4383 8.92468 38.2616 12.8124 37.1408C19.4034 35.2403 18.7185 29.074 17.9926 22.5445Z" fill="#FAB515"/>
<path d="M43.8865 30.5182C43.8865 19.9493 38.5392 3.12109 32.2016 3.12109C26.9881 3.12109 26.3857 10.45 26.3857 15.9629C26.3857 18.1351 26.1365 20.3768 25.8957 22.5445C25.1697 29.074 24.4841 35.2403 31.0758 37.1408C34.9628 38.2616 36.4951 39.4383 37.6138 40.2966C38.5058 40.9814 39.15 41.4764 40.4456 41.4764C40.9357 41.4764 41.3829 41.2756 41.7753 40.8803C43.9279 38.7102 43.8893 30.8492 43.8865 30.5182Z" fill="#FAB515"/>
</svg>
