<svg width="35" height="37" viewBox="0 0 35 37" fill="none" xmlns="http://www.w3.org/2000/svg">
<path d="M20.0634 26.9005C20.0555 26.9372 20.0486 26.9669 20.0411 26.9967L20.0273 27.0498C20.0134 27.0983 19.9976 27.147 19.9796 27.1962C19.9706 27.2209 19.9606 27.2464 19.9503 27.2719C19.9482 27.2772 19.9456 27.2827 19.9434 27.2881L23.8603 23.3993L32.8681 24.2872C33.8701 24.3869 34.7601 23.6546 34.8586 22.6541C34.9571 21.6535 34.2261 20.7624 33.2255 20.6638L23.3647 19.6918C22.8242 19.639 22.2885 19.829 21.9033 20.2115L21.1557 20.9537L20.0774 26.8375C20.0735 26.8589 20.0685 26.8797 20.0634 26.9005Z" fill="white"/>
<path d="M22.8348 4.7385C23.1042 4.54606 23.1665 4.17207 22.9742 3.903C22.6096 3.39087 22.7281 2.68136 23.2384 2.31494C23.7505 1.95086 24.4601 2.06879 24.8264 2.57968L33.913 15.298C34.1051 15.5669 34.4795 15.6297 34.7488 15.4372C35.0179 15.245 35.0801 14.8703 34.888 14.6014L25.8011 1.88328C25.0505 0.833278 23.5925 0.590184 22.5421 1.34022C21.4923 2.09062 21.2495 3.54892 21.9995 4.59934C22.1917 4.86845 22.5658 4.93075 22.8348 4.7385Z" fill="white"/>
<path d="M6.58182 17.9568C6.54627 17.9842 6.50982 18.0092 6.47516 18.0391C5.35334 19.0116 4.86976 21.1744 6.56122 23.2993C8.90424 26.2084 10.7098 27.6922 14.2428 29.5025C16.9218 30.6411 18.2097 29.2771 19.0586 27.999C19.2463 27.7163 19.404 27.464 19.5132 27.2288C19.5167 27.2214 19.5196 27.2136 19.5231 27.2063C19.5368 27.1757 19.55 27.1454 19.5621 27.1153C19.5704 27.0946 19.5786 27.074 19.5863 27.0528C19.6007 27.0134 19.6135 26.9743 19.6245 26.9356C19.6284 26.9218 19.6316 26.9078 19.6353 26.8938C19.6412 26.8707 19.6465 26.8477 19.6512 26.8248C19.6558 26.8039 19.6617 26.7835 19.6656 26.7622L21.122 18.8148L27.0011 15.9894C27.9073 15.5539 28.2888 14.4661 27.8533 13.56C27.4177 12.6536 26.33 12.2723 25.4238 12.7077L18.7096 15.9345C18.185 16.1867 17.8125 16.6746 17.7076 17.2472L16.4544 24.0862C14.3738 23.0166 13.2549 21.9918 12.4051 21.0289L8.89856 21.7971C8.79153 21.8205 8.68237 21.8324 8.57411 21.8324C7.87026 21.8324 7.24979 21.3328 7.09903 20.6445C6.9209 19.8306 7.43789 19.0234 8.25178 18.8451L10.1245 18.4349C9.98737 18.3067 9.84648 18.1897 9.70215 18.0864L12.2656 15.7881C12.4674 15.6072 12.5947 15.3579 12.623 15.0884L13.3295 8.32908C13.3921 7.72914 12.9567 7.19187 12.3566 7.12921C11.7573 7.06557 11.2193 7.50211 11.1566 8.10206L10.4938 14.4426L6.61454 17.9208C6.60227 17.9319 6.59355 17.9453 6.58182 17.9568Z" fill="white"/>
<path d="M8.34072 19.2543C7.75155 19.3834 7.37838 19.9657 7.50746 20.5551C7.61929 21.0656 8.0714 21.4139 8.57346 21.4139C8.65098 21.4139 8.72955 21.4055 8.80831 21.3883L14.4804 20.1456C14.8448 20.0658 15.1433 19.8054 15.2719 19.4552L17.2636 14.0312C17.4716 13.4649 17.1811 12.8372 16.6148 12.6293C16.0479 12.4212 15.4208 12.7118 15.213 13.2782L13.4277 18.1399L8.34072 19.2543Z" fill="white"/>
<path d="M2.56194 17.7976C4.34387 18.2127 7.48158 17.4206 7.89662 15.6388C8.3117 13.8568 5.8469 11.76 4.06498 11.3449C2.28306 10.9299 0.502212 12.0377 0.0870976 13.8197C-0.327907 15.6015 0.780023 17.3825 2.56194 17.7976Z" fill="white"/>
<path d="M22.9872 30.3667C22.9913 30.2481 22.9185 30.1405 22.8069 30.1002L20.4212 29.2404C20.2793 29.1893 20.1229 29.2627 20.0717 29.4046C20.0205 29.5465 20.0941 29.7031 20.236 29.7542L21.822 30.3258L19.9236 30.863C19.8317 30.889 19.7602 30.9611 19.7348 31.053C19.7094 31.145 19.7337 31.2436 19.7991 31.313L20.8234 32.4007L19.0578 32.2306C18.9666 32.222 18.8754 32.2602 18.8178 32.3326C18.7604 32.405 18.7433 32.5017 18.7728 32.5895L19.5234 34.8224L17.6636 33.5102C17.5905 33.4586 17.4965 33.4462 17.4131 33.4767C17.329 33.5072 17.2652 33.5769 17.2422 33.6633L16.7099 35.6691L15.7449 33.6077C15.7056 33.5236 15.6262 33.4653 15.5341 33.453C15.4427 33.4401 15.3501 33.4757 15.2898 33.5464L14.0277 35.0268L14.1474 32.5061C14.1514 32.422 14.1164 32.3408 14.0526 32.286C13.9888 32.2312 13.9036 32.2093 13.8208 32.2254L12.4095 32.509L13.2055 31.3423C13.2904 31.2177 13.2582 31.0478 13.1338 30.9628C13.0092 30.8778 12.8392 30.9098 12.7542 31.0345L11.5807 32.755C11.5181 32.8467 11.5174 32.9671 11.5787 33.0597C11.64 33.1519 11.7506 33.198 11.8601 33.1766L13.5852 32.8298L13.4444 35.7991C13.4389 35.9158 13.508 36.023 13.6167 36.066C13.7251 36.1087 13.849 36.0781 13.925 35.9892L15.4303 34.2235L16.534 36.5811C16.5791 36.6776 16.676 36.7383 16.7811 36.7383C16.7892 36.7383 16.7974 36.738 16.8056 36.7372C16.9199 36.727 17.0158 36.6463 17.0453 36.5353L17.6695 34.1826L19.8911 35.75C19.9874 35.8181 20.1168 35.8166 20.2116 35.7458C20.3062 35.6753 20.3449 35.5519 20.3073 35.4399L19.4247 32.8146L21.4938 33.0139C21.6035 33.0241 21.7151 32.9646 21.7651 32.8622C21.8152 32.7601 21.7967 32.6377 21.7187 32.5548L20.5051 31.266L22.7886 30.6198C22.9027 30.5876 22.9831 30.4853 22.9872 30.3667Z" fill="white"/>
<path d="M11.4334 28.7836C6.9109 25.9522 4.96664 22.377 4.94762 22.3413L4.70654 22.4699C4.7261 22.5062 6.70076 26.1428 11.2883 29.0151L11.4334 28.7836Z" fill="white"/>
<path d="M10.0066 29.0157L10.1491 28.7828C9.80015 28.5691 9.44955 28.3371 9.10732 28.0933L8.94873 28.3157C9.2963 28.5632 9.65223 28.7987 10.0066 29.0157Z" fill="white"/>
<path d="M5.15724 24.3486L4.9375 24.5106C4.94977 24.5275 6.20403 26.2156 8.35435 27.8746L8.52111 27.6584C6.40296 26.0243 5.16951 24.3652 5.15724 24.3486Z" fill="white"/>
</svg>
