<svg width="29" height="35" viewBox="0 0 29 35" fill="none" xmlns="http://www.w3.org/2000/svg">
<path d="M14.6774 8.70166C14.5251 7.81213 15.1227 6.96712 16.0123 6.81515C16.9018 6.66278 17.7464 7.26043 17.8988 8.14996C17.8992 8.15037 17.9035 8.17795 17.9171 8.24964C17.9308 8.32215 17.9519 8.43041 17.9801 8.56767C18.0364 8.84096 18.1228 9.22986 18.2384 9.67187C18.304 9.92678 18.3814 10.2011 18.467 10.4801C19.312 9.18207 19.6143 7.56702 19.0068 6.11374C18.1484 4.03482 14.927 3.41613 12.2644 5.35983C8.92887 7.79456 6.14201 10.905 4.0872 14.4868C2.44621 17.3464 3.41438 20.4813 5.57438 21.1067C5.91569 21.2072 6.25986 21.2556 6.6024 21.2671C6.77132 21.3075 6.94678 21.3312 7.12795 21.3312H17.3738L19.4199 32.5119C19.618 33.5959 20.5635 34.3545 21.6274 34.3545C21.7616 34.3545 21.8977 34.3425 22.0343 34.3176C23.255 34.0941 24.0636 32.9239 23.8404 31.7033L21.4569 18.6795C21.262 17.6119 20.3321 16.837 19.2468 16.837H12.2727C13.3008 15.3867 14.5067 14.0705 15.8629 12.9197C15.7698 12.6891 15.683 12.4583 15.6013 12.2292C14.972 10.4382 14.6881 8.75191 14.6774 8.70166Z" fill="white"/>
<path d="M25.943 0.912792C23.5524 0.0618628 20.9245 1.31007 20.0737 3.70047C19.307 5.85537 20.2459 8.20227 22.189 9.26767C22.4458 8.65347 22.7125 7.96513 22.9876 7.19447C23.2918 6.34477 24.2271 5.90235 25.077 6.20628C25.9267 6.51062 26.3689 7.4457 26.0648 8.29561C25.8881 8.78869 25.714 9.25337 25.5419 9.69313C26.9717 9.32568 28.199 8.27743 28.7313 6.78208C29.582 4.39106 28.3334 1.76331 25.943 0.912792Z" fill="white"/>
<path d="M2.51786 22.5903L0.597656 33.8244H15.6725L13.7519 22.5903H2.51786Z" fill="white"/>
<path d="M24.9393 6.59086C24.8053 6.54307 24.6666 6.51855 24.5263 6.51855C24.0099 6.51855 23.5458 6.84577 23.372 7.3317C23.084 8.13932 22.812 8.83829 22.5568 9.44738C21.8495 11.1374 21.2768 12.118 20.8844 12.6701C20.4706 13.261 20.1601 13.509 20.0459 13.5885L19.7549 13.7903L19.5134 13.5558C19.3461 13.3926 19.0876 13.0598 18.8684 12.6236C18.5869 12.0892 18.349 11.4505 18.168 10.8933C18.0162 10.426 17.9045 10.0156 17.8426 9.77459C17.7462 9.40591 17.6576 9.02743 17.5793 8.64955C17.5505 8.50943 17.5293 8.39914 17.5154 8.32561L17.4954 8.21837C17.3943 7.62746 16.8869 7.19914 16.2891 7.19914C16.2198 7.19914 16.1495 7.20506 16.0805 7.21711C15.7576 7.27226 15.4759 7.45017 15.2868 7.71692C15.098 7.98429 15.0239 8.30886 15.0766 8.61606L15.0848 8.65915C15.1822 9.19819 15.4657 10.6116 15.9855 12.0913C16.0472 12.2649 16.1163 12.451 16.192 12.6438C16.4404 13.2761 16.7707 13.99 17.2305 14.6389C17.5532 15.0865 17.8751 15.4149 18.2462 15.6737C18.5095 15.8592 19.0565 16.1709 19.7592 16.1709H19.7806C20.3466 16.1709 20.9475 15.9615 21.4729 15.5816C22.2135 15.0434 22.8385 14.2735 23.5616 13.0088C24.0606 12.1264 24.5569 11.061 25.0643 9.78787C25.2675 9.27764 25.4724 8.73759 25.6801 8.1575C25.7906 7.84908 25.7743 7.51634 25.6344 7.22079C25.4942 6.92482 25.2475 6.70096 24.9393 6.59086Z" fill="white"/>
</svg>
