<svg width="53" height="50" viewBox="0 0 53 50" fill="none" xmlns="http://www.w3.org/2000/svg">
<path d="M49.1188 29.5439C50.5738 28.3144 52.2236 26.9211 52.2236 24.9999C52.2236 23.0787 50.5732 21.6862 49.1195 20.4567C48.1974 19.6777 47.2444 18.8752 47.027 18.204C46.7912 17.4771 47.0958 16.2222 47.3881 15.0099C47.8481 13.1086 48.324 11.1432 47.2369 9.6463C46.1366 8.13831 44.0187 7.97807 42.1483 7.83718C40.9105 7.7437 39.6377 7.64741 39.0347 7.20864C38.4467 6.78021 37.9668 5.60775 37.5039 4.47325C36.7888 2.72393 35.9788 0.74143 34.1827 0.158376C32.4512 -0.404151 30.7445 0.645288 29.0982 1.6615C28.02 2.32445 26.9047 3.01133 26.1118 3.01133C25.3189 3.01133 24.2036 2.32371 23.1247 1.6615C21.4744 0.645141 19.7719 -0.401492 18.041 0.158376C16.2442 0.74143 15.4348 2.72334 14.7204 4.47265C14.2562 5.60731 13.7775 6.78036 13.189 7.20879C12.586 7.64755 11.3098 7.74384 10.0754 7.83733C8.205 7.97482 6.08707 8.13845 4.98683 9.64719C3.89973 11.1407 4.37557 13.1061 4.8356 15.0108C5.12861 16.2231 5.43254 17.478 5.19654 18.2049C4.9793 18.8733 4.02763 19.6792 3.10475 20.4576C1.64889 21.6868 0 23.0799 0 25.0005C0 26.9211 1.65036 28.315 3.10475 29.5444C4.02615 30.3229 4.9793 31.126 5.19654 31.7965C5.43239 32.524 5.12772 33.7782 4.8356 34.9906C4.37557 36.8918 3.89973 38.8572 4.98683 40.3541C6.08707 41.8629 8.205 42.0231 10.0754 42.164C11.3131 42.2575 12.5866 42.3545 13.1898 42.7925C13.7777 43.221 14.2569 44.3934 14.7205 45.5287C15.4356 47.278 16.245 49.2597 18.0418 49.8435C18.3649 49.9485 18.7025 50.0017 19.0423 50.001C20.4286 50.001 21.7929 49.1593 23.1255 48.341C24.2044 47.6767 25.3197 46.9899 26.1125 46.9899C26.9053 46.9899 28.0207 47.6775 29.0996 48.341C30.7499 49.3553 32.4539 50.404 34.1825 49.8435C35.9794 49.2597 36.7894 47.278 37.5038 45.5287C37.9672 44.394 38.4466 43.221 39.0351 42.7925C39.6375 42.3545 40.9138 42.2582 42.1474 42.1647C44.0184 42.0272 46.1391 41.8636 47.236 40.3549C48.3231 38.8606 47.8472 36.896 47.3879 34.9913C47.0944 33.7784 46.791 32.5241 47.0269 31.7972C47.2443 31.1281 48.1974 30.3221 49.1188 29.5439ZM44.7413 31.0532C44.295 32.4284 44.6802 34.0182 45.0522 35.5572C45.3678 36.8638 45.7261 38.3408 45.2935 38.9349C44.8506 39.5428 43.32 39.6583 41.9694 39.76C40.4003 39.8789 38.7774 40.0007 37.6222 40.8416C36.48 41.6724 35.8694 43.168 35.2788 44.6133C34.7623 45.8779 34.1785 47.3109 33.442 47.5503C32.7716 47.7649 31.4919 46.981 30.3642 46.2864C28.9944 45.4469 27.5861 44.577 26.1118 44.577C24.6375 44.577 23.2237 45.4448 21.8629 46.2851C20.7352 46.9797 19.4561 47.7628 18.7843 47.549C18.0499 47.3097 17.4648 45.8766 16.9476 44.612C16.3576 43.168 15.7463 41.671 14.6047 40.8403C13.4495 39.9994 11.8259 39.8776 10.256 39.7579C8.9062 39.6554 7.37546 39.5407 6.93271 38.9328C6.50088 38.338 6.85916 36.8596 7.17476 35.5544C7.54678 34.0154 7.9312 32.425 7.48563 31.0511C7.05661 29.7302 5.83527 28.7001 4.65809 27.7037C3.60318 26.8098 2.4068 25.8017 2.4068 24.9979C2.4068 24.194 3.60259 23.1839 4.6575 22.2927C5.83675 21.2963 7.05661 20.2662 7.48578 18.9446C7.93208 17.5694 7.54692 15.9802 7.17491 14.4419C6.85931 13.1353 6.50103 11.6576 6.93286 11.0635C7.37576 10.4556 8.90635 10.3401 10.2562 10.2384C11.8261 10.1193 13.4495 9.99764 14.6049 9.15599C15.7463 8.32527 16.3577 6.83042 16.9477 5.38504C17.4648 4.12043 18.048 2.68672 18.785 2.44806C18.8682 2.42251 18.9546 2.40996 19.0416 2.41099C19.7512 2.41099 20.8659 3.09861 21.8609 3.71194C23.2244 4.55152 24.6348 5.41931 26.1091 5.41931C27.5834 5.41931 28.9944 4.55624 30.36 3.71327C31.4877 3.01812 32.762 2.23348 33.4392 2.44939C34.1729 2.68805 34.7588 4.12176 35.276 5.38623C35.8667 6.83027 36.4772 8.3266 37.6188 9.15718C38.774 9.99882 40.3976 10.1199 41.9675 10.2395C43.3173 10.342 44.8481 10.4575 45.2908 11.0647C45.7227 11.6595 45.3651 13.1378 45.0488 14.4437C44.6768 15.9819 44.2924 17.5725 44.7379 18.9464C45.1669 20.268 46.3883 21.2981 47.5662 22.2945C48.6211 23.1884 49.8169 24.1958 49.8169 24.9996C49.8169 25.8035 48.6211 26.8136 47.5656 27.7055C46.3861 28.7021 45.1669 29.7321 44.7413 31.0532Z" fill="#7F87FC"/>
<path d="M31.6264 17.4345L23.9331 25.1278L20.5967 21.7913C19.0518 20.2471 16.5476 20.2477 15.0035 21.7926C13.4593 23.3375 13.4599 25.8417 15.0048 27.3858L21.1372 33.5183C22.6815 35.0621 25.1848 35.0621 26.7291 33.5183L37.2183 23.0255C38.7739 21.493 38.7926 18.9894 37.2599 17.4339C35.7273 15.8783 33.2239 15.8596 31.6684 17.3922C31.6543 17.4064 31.6403 17.4205 31.6264 17.4345ZM35.5164 21.3239L25.0272 31.8131C24.4155 32.399 23.4508 32.399 22.8391 31.8131L16.7061 25.6801C16.1022 25.0759 16.1025 24.0965 16.7068 23.4928C17.311 22.8889 18.2904 22.8892 18.8942 23.4935L23.0806 27.6805C23.5505 28.15 24.3119 28.15 24.7817 27.6805L33.3264 19.1345C33.9199 18.5198 34.8994 18.5025 35.5142 19.0961C36.129 19.6896 36.1461 20.6691 35.5526 21.2839C35.5402 21.2967 35.5275 21.3094 35.5145 21.322L35.5164 21.3239Z" fill="#7F87FC"/>
</svg>
