<svg width="99" height="94" viewBox="0 0 99 94" fill="none" xmlns="http://www.w3.org/2000/svg">
<path d="M49.1427 69.2852C38.5874 69.2852 30 60.6979 30 50.1424C30 39.5871 38.5874 30.9999 49.1427 30.9999C59.6981 30.9999 68.2855 39.5871 68.2855 50.1424C68.2855 60.6979 59.6981 69.2852 49.1427 69.2852Z" fill="#E2C4FF"/>
<path fill-rule="evenodd" clip-rule="evenodd" d="M41.5596 1.20865C46.4143 -0.402882 51.6467 -0.402882 56.5014 1.20865C61.3365 2.81352 65.1326 6.61983 68.946 11.9678C72.7471 17.2979 76.9473 24.7299 82.3612 34.3099L82.5737 34.686C87.989 44.2675 92.1887 51.6991 94.8063 57.726C97.4361 63.782 98.746 69.0108 97.7011 74.0342C96.6485 79.0923 94.0537 83.6916 90.2745 87.168C86.5044 90.6357 81.371 92.0989 74.9076 92.8013C68.4808 93.5 60.0735 93.5 49.2531 93.5H48.8084C37.9876 93.5 29.5804 93.5 23.1534 92.8013C16.6898 92.0989 11.5566 90.6357 7.78659 87.168C4.00737 83.6916 1.41245 79.0923 0.360093 74.0342C-0.685055 69.0108 0.624857 63.782 3.25494 57.726C5.87235 51.6991 10.0722 44.2675 15.4872 34.686L15.6997 34.3099C21.1137 24.7299 25.3138 17.2979 29.1149 11.9678C32.9286 6.61983 36.7247 2.81352 41.5596 1.20865ZM54.3463 7.70174C50.8905 6.5547 47.1705 6.5547 43.7147 7.70174C40.9968 8.60404 38.264 10.9212 34.685 15.94C31.1184 20.9414 27.0921 28.0566 21.5491 37.8648C16.0063 47.6727 11.9874 54.7933 9.53021 60.4512C7.06874 66.1191 6.4521 69.7277 7.05811 72.6408C7.82258 76.3147 9.70366 79.6355 12.4183 82.1327C14.5502 84.0939 17.8723 85.3454 23.8929 85.9999C29.9061 86.6535 37.941 86.6585 49.0305 86.6585C60.1201 86.6585 68.1547 86.6535 74.1683 85.9999C80.1888 85.3454 83.511 84.0939 85.6428 82.1327C88.3575 79.6355 90.2384 76.3147 91.0029 72.6408C91.609 69.7277 90.9924 66.1191 88.5308 60.4512C86.0738 54.7933 82.0547 47.6727 76.5122 37.8648C70.9688 28.0566 66.9428 20.9414 63.3761 15.94C59.7971 10.9212 57.0647 8.60404 54.3463 7.70174Z" fill="#020288"/>
<path fill-rule="evenodd" clip-rule="evenodd" d="M44.4351 64.9941C44.4351 62.4751 46.477 60.4331 48.996 60.4331H49.0371C51.5561 60.4331 53.5981 62.4751 53.5981 64.9941C53.5981 67.5131 51.5561 69.5551 49.0371 69.5551H48.996C46.477 69.5551 44.4351 67.5131 44.4351 64.9941Z" fill="#020288"/>
<path fill-rule="evenodd" clip-rule="evenodd" d="M49.0311 54.7314C47.1419 54.7314 45.6104 53.1998 45.6104 51.3106V33.0667C45.6104 31.1775 47.1419 29.646 49.0311 29.646C50.9202 29.646 52.4518 31.1775 52.4518 33.0667V51.3106C52.4518 53.1998 50.9202 54.7314 49.0311 54.7314Z" fill="#020288"/>
</svg>
