<svg width="93" height="93" viewBox="0 0 93 93" fill="none" xmlns="http://www.w3.org/2000/svg">
<path d="M46.5 65.0942C57.6575 65.0942 66.7346 56.0169 66.7346 44.8594V20.2346C66.7346 9.07731 57.6575 0 46.5 0C35.3425 0 26.2654 9.07731 26.2654 20.2346V44.8592C26.2654 56.0171 35.3425 65.0942 46.5 65.0942ZM32.0779 20.2346C32.0779 12.2822 38.5476 5.8125 46.5 5.8125C54.4524 5.8125 60.9221 12.2822 60.9221 20.2346V44.8592C60.9221 52.8116 54.4524 59.2815 46.5 59.2815C38.5476 59.2815 32.0779 52.8116 32.0779 44.8592V20.2346ZM79.8472 50.7095C78.4862 58.4427 74.4093 65.5279 68.3675 70.6602C62.9966 75.2228 56.3531 77.9845 49.4062 78.5899V87.1875H68.2969C69.902 87.1875 71.2031 88.4886 71.2031 90.0938C71.2031 91.6989 69.902 93 68.2969 93H24.7031C23.098 93 21.7969 91.6989 21.7969 90.0938C21.7969 88.4886 23.098 87.1875 24.7031 87.1875H43.5938V78.5899C36.6469 77.9845 30.0036 75.2228 24.6325 70.6602C18.5907 65.5279 14.514 58.4427 13.153 50.7095C12.8749 49.1287 13.9306 47.6216 15.5114 47.3435C17.092 47.0654 18.5993 48.1213 18.8774 49.702C21.2436 63.1466 32.8606 72.9046 46.5 72.9046C60.1394 72.9046 71.7564 63.1465 74.1226 49.702C74.4007 48.1211 75.9076 47.0651 77.4886 47.3435C79.0696 47.6216 80.1253 49.1287 79.8472 50.7095ZM93 23.5737V32.3658C93 33.971 91.6989 35.2721 90.0938 35.2721C88.4886 35.2721 87.1875 33.971 87.1875 32.3658V23.5737C87.1875 21.9685 88.4886 20.6674 90.0938 20.6674C91.6989 20.6674 93 21.9685 93 23.5737ZM5.8125 23.5737V32.3658C5.8125 33.971 4.51141 35.2721 2.90625 35.2721C1.30109 35.2721 0 33.971 0 32.3658V23.5737C0 21.9685 1.30109 20.6674 2.90625 20.6674C4.51141 20.6674 5.8125 21.9685 5.8125 23.5737Z" fill="#020288"/>
<path d="M13.1094 19.5747V36.3647C13.1094 37.9698 14.4105 39.2709 16.0156 39.2709C17.6208 39.2709 18.9219 37.9698 18.9219 36.3647V19.5747C18.9219 17.9695 17.6208 16.6685 16.0156 16.6685C14.4105 16.6685 13.1094 17.9695 13.1094 19.5747Z" fill="#E2C4FF"/>
<path d="M79.8906 36.3651V19.5752C79.8906 17.97 78.5895 16.6689 76.9844 16.6689C75.3792 16.6689 74.0781 17.97 74.0781 19.5752V36.3651C74.0781 37.9703 75.3792 39.2714 76.9844 39.2714C78.5895 39.2714 79.8906 37.9703 79.8906 36.3651Z" fill="#E2C4FF"/>
</svg>
