<svg width="98" height="95" viewBox="0 0 98 95" fill="none" xmlns="http://www.w3.org/2000/svg">
<path d="M87.9266 54.632H82.9617L73.2984 33.8783C72.3753 31.9084 70.9114 30.2415 69.0772 29.0717C67.243 27.9019 65.1142 27.2776 62.9388 27.2713H52.6221L50.6963 20.2688C50.3551 19.0283 49.6168 17.9337 48.5944 17.1527C47.5719 16.3717 46.3217 15.9472 45.035 15.9444H40.947C39.6604 15.9472 38.4102 16.3717 37.3877 17.1527C36.3652 17.9337 35.6269 19.0283 35.2858 20.2688L33.3729 27.2713H10.3667C7.88318 27.2736 5.50205 28.2611 3.74595 30.0172C1.98985 31.7733 1.00228 34.1545 1 36.638L1 77.0106C1.00228 79.4941 1.98985 81.8752 3.74595 83.6313C5.50205 85.3874 7.88318 86.375 10.3667 86.3773H15.525C15.8942 88.4984 17.0001 90.4213 18.6479 91.8071C20.2957 93.1929 22.3797 93.9527 24.5328 93.9527C26.6858 93.9527 28.7698 93.1929 30.4176 91.8071C32.0655 90.4213 33.1714 88.4984 33.5405 86.3773H65.3503C65.7221 88.4969 66.8293 90.4176 68.4772 91.8016C70.1251 93.1856 72.2082 93.9443 74.3602 93.9443C76.5122 93.9443 78.5953 93.1856 80.2432 91.8016C81.8911 90.4176 82.9983 88.4969 83.3701 86.3773H87.9395C89.3008 86.3535 90.6415 86.0407 91.8729 85.4598C93.1042 84.8788 94.1981 84.0429 95.082 83.0073C95.966 81.9718 96.6199 80.7603 97.0003 79.453C97.3808 78.1457 97.4792 76.7725 97.289 75.4244V63.9944C97.2867 61.512 96.2996 59.132 94.5443 57.3767C92.789 55.6214 90.409 54.6343 87.9266 54.632ZM79.7593 54.632H58.9067V37.9791H71.9874L79.7593 54.632ZM38.1014 21.0254C38.7848 18.0508 42.8685 18.9793 45.035 18.8503C45.6821 18.851 46.3111 19.0642 46.8253 19.4572C47.3394 19.8502 47.7102 20.4011 47.8807 21.0254L49.6002 27.2713H36.3991L38.1014 21.0254ZM3.91876 36.638C3.91876 34.9279 4.59809 33.2878 5.80731 32.0786C7.01653 30.8694 8.65659 30.19 10.3667 30.19H47.4809V65.2324H3.91876V36.638ZM24.5091 91.1229C22.8883 91.0803 21.3482 90.4065 20.2169 89.2451C19.0856 88.0836 18.4525 86.5263 18.4525 84.905C18.4525 83.2836 19.0856 81.7263 20.2169 80.5649C21.3482 79.4035 22.8883 78.7297 24.5091 78.687C26.1299 78.7297 27.67 79.4035 28.8013 80.5649C29.9326 81.7263 30.5657 83.2836 30.5657 84.905C30.5657 86.5263 29.9326 88.0836 28.8013 89.2451C27.67 90.4065 26.1299 91.0803 24.5091 91.1229ZM24.5091 75.764C22.3375 75.7645 20.2369 76.5376 18.5831 77.9449C16.9292 79.3522 15.83 81.3021 15.482 83.4456H10.3237C8.6136 83.4456 6.97355 82.7663 5.76433 81.557C4.55511 80.3478 3.87577 78.7078 3.87577 76.9977V68.1511H47.4809V83.4585H33.519C33.1751 81.3151 32.0798 79.3641 30.4291 77.9543C28.7783 76.5446 26.6799 75.7682 24.5091 75.764ZM74.343 91.1229C72.7222 91.0803 71.1821 90.4065 70.0508 89.2451C68.9195 88.0836 68.2864 86.5263 68.2864 84.905C68.2864 83.2836 68.9195 81.7263 70.0508 80.5649C71.1821 79.4035 72.7222 78.7297 74.343 78.687C75.9638 78.7297 77.5039 79.4035 78.6352 80.5649C79.7665 81.7263 80.3996 83.2836 80.3996 84.905C80.3996 86.5263 79.7665 88.0836 78.6352 89.2451C77.5039 90.4065 75.9638 91.0803 74.343 91.1229ZM87.9266 83.4456H83.3572C82.9906 81.3218 81.8855 79.3957 80.237 78.0074C78.5885 76.6191 76.5025 75.8578 74.3473 75.8578C72.1921 75.8578 70.1061 76.6191 68.4576 78.0074C66.8091 79.3957 65.704 81.3218 65.3374 83.4456H50.3997V30.19H62.9388C64.5507 30.1931 66.129 30.652 67.4913 31.5138C68.8536 32.3756 69.9443 33.6051 70.6376 35.0604H57.4494C57.0626 35.0604 56.6915 35.2138 56.4175 35.4869C56.1435 35.7601 55.989 36.1307 55.9879 36.5176V56.0935C55.9902 56.48 56.145 56.85 56.4187 57.1229C56.6925 57.3959 57.0629 57.5496 57.4494 57.5507H87.9266C88.8313 57.5574 89.7247 57.7522 90.55 58.1226C91.3754 58.493 92.1148 59.031 92.7211 59.7025C93.3274 60.3739 93.7875 61.164 94.0722 62.0228C94.3568 62.8815 94.4598 63.7901 94.3745 64.6907H88.206C87.8192 64.6919 87.4485 64.8464 87.1754 65.1203C86.9022 65.3943 86.7488 65.7654 86.7488 66.1523V75.4244C86.7488 75.8109 86.9023 76.1815 87.1756 76.4548C87.4489 76.7281 87.8195 76.8816 88.206 76.8816H94.3702C94.3874 77.7388 94.2334 78.5908 93.9173 79.3877C93.6013 80.1847 93.1294 80.9106 92.5294 81.523C91.9294 82.1355 91.2133 82.6221 90.423 82.9544C89.6326 83.2867 88.784 83.4581 87.9266 83.4585V83.4456ZM94.3745 73.9629H89.6676V67.6095H94.3702L94.3745 73.9629ZM63.4675 64.7724H57.4494C57.063 64.7724 56.6923 64.6189 56.419 64.3456C56.1457 64.0723 55.9922 63.7017 55.9922 63.3152C55.9922 62.9287 56.1457 62.5581 56.419 62.2848C56.6923 62.0115 57.063 61.858 57.4494 61.858H63.4675C63.854 61.8585 64.2244 62.0126 64.4973 62.2863C64.7702 62.56 64.9231 62.9309 64.9226 63.3173C64.922 63.7038 64.7679 64.0742 64.4942 64.3471C64.2206 64.62 63.854 64.773 63.4675 64.7724ZM41.5446 10.6098V2.3823C41.5648 2.00894 41.7274 1.65755 41.9989 1.40043C42.2703 1.1433 42.63 1 43.0039 1C43.3778 1 43.7375 1.1433 44.009 1.40043C44.2804 1.65755 44.443 2.00894 44.4633 2.3823V10.627C44.4741 10.8254 44.4443 11.0238 44.3758 11.2102C44.3074 11.3966 44.2016 11.5671 44.065 11.7113C43.9285 11.8555 43.7639 11.9704 43.5815 12.0488C43.3991 12.1273 43.2025 12.1678 43.0039 12.1678C42.8053 12.1678 42.6088 12.1273 42.4264 12.0488C42.2439 11.9704 42.0794 11.8555 41.9428 11.7113C41.8063 11.5671 41.7005 11.3966 41.632 11.2102C41.5635 11.0238 41.5338 10.8254 41.5446 10.627V10.6098ZM51.7323 11.8994L57.7417 6.29834C59.1044 4.98726 61.1333 7.15806 59.7277 8.44764L53.7096 14.0659C53.4246 14.3299 53.0464 14.4698 52.6583 14.4548C52.2701 14.4399 51.9038 14.2714 51.6399 13.9864C51.3759 13.7014 51.236 13.3232 51.2509 12.9351C51.2659 12.5469 51.4344 12.1806 51.7194 11.9166L51.7323 11.8994ZM26.2415 8.43475C26.1004 8.30435 25.9863 8.14743 25.9058 7.97295C25.8253 7.79847 25.78 7.60984 25.7724 7.41785C25.7648 7.22585 25.7951 7.03424 25.8616 6.85395C25.9281 6.67367 26.0294 6.50824 26.1598 6.36711C26.2902 6.22599 26.4471 6.11193 26.6216 6.03145C26.7961 5.95097 26.9847 5.90564 27.1767 5.89806C27.3687 5.89047 27.5603 5.92078 27.7406 5.98725C27.9209 6.05371 28.0863 6.15504 28.2274 6.28544L34.2455 11.908C35.6511 13.1718 33.6136 15.3469 32.2552 14.0573L26.2415 8.43475ZM24.5091 86.4675C24.1134 86.4466 23.7407 86.2747 23.468 85.9872C23.1952 85.6997 23.0432 85.3185 23.0432 84.9222C23.0432 84.5259 23.1952 84.1447 23.468 83.8571C23.7407 83.5696 24.1134 83.3977 24.5091 83.3768C24.9049 83.3977 25.2776 83.5696 25.5503 83.8571C25.8231 84.1447 25.9751 84.5259 25.9751 84.9222C25.9751 85.3185 25.8231 85.6997 25.5503 85.9872C25.2776 86.2747 24.9049 86.4466 24.5091 86.4675ZM74.3473 86.4675C73.9515 86.4466 73.5789 86.2747 73.3061 85.9872C73.0334 85.6997 72.8813 85.3185 72.8813 84.9222C72.8813 84.5259 73.0334 84.1447 73.3061 83.8571C73.5789 83.5696 73.9515 83.3977 74.3473 83.3768C74.743 83.3977 75.1157 83.5696 75.3885 83.8571C75.6612 84.1447 75.8133 84.5259 75.8133 84.9222C75.8133 85.3185 75.6612 85.6997 75.3885 85.9872C75.1157 86.2747 74.743 86.4466 74.3473 86.4675ZM26.0566 35.7439C22.9225 35.8033 19.9369 37.09 17.7414 39.3274C15.546 41.5649 14.3161 44.5744 14.3161 47.7091C14.3161 50.8437 15.546 53.8532 17.7414 56.0907C19.9369 58.3281 22.9225 59.6148 26.0566 59.6743C29.1907 59.6148 32.1764 58.3281 34.3718 56.0907C36.5673 53.8532 37.7972 50.8437 37.7972 47.7091C37.7972 44.5744 36.5673 41.5649 34.3718 39.3274C32.1764 37.09 29.1907 35.8033 26.0566 35.7439ZM26.0566 56.7555C23.6568 56.7555 21.3553 55.8022 19.6583 54.1052C17.9614 52.4083 17.008 50.1067 17.008 47.7069C17.008 45.3071 17.9614 43.0055 19.6583 41.3086C21.3553 39.6116 23.6568 38.6583 26.0566 38.6583C28.457 38.6583 30.7591 39.6119 32.4565 41.3092C34.1538 43.0066 35.1074 45.3087 35.1074 47.7091C35.1074 50.1095 34.1538 52.4116 32.4565 54.1089C30.7591 55.8062 28.457 56.7598 26.0566 56.7598V56.7555ZM30.8883 49.1684H27.5139C27.3247 50.5526 28.2747 53.9786 26.0566 54.0001C23.8385 54.0216 24.7885 50.5612 24.5951 49.1684C23.211 48.975 19.7893 49.925 19.7678 47.7069C19.7463 45.4888 23.2067 46.4388 24.5951 46.2454C24.7885 44.8612 23.8385 41.4395 26.0566 41.418C28.2747 41.3965 27.3247 44.8569 27.5139 46.2454H30.8883C31.2765 46.2454 31.6488 46.3996 31.9233 46.6741C32.1978 46.9486 32.352 47.3209 32.352 47.7091C32.352 48.0972 32.1978 48.4695 31.9233 48.744C31.6488 49.0185 31.2765 49.1727 30.8883 49.1727V49.1684Z" fill="#020288" stroke="#020288"/>
</svg>
