<svg width="93" height="93" viewBox="0 0 93 93" fill="none" xmlns="http://www.w3.org/2000/svg">
<path d="M90.0085 66.9414C89.8442 66.805 71.2566 53.5618 66.2377 54.3895C63.8166 54.8173 62.434 56.4696 59.6595 59.7742C59.2131 60.3074 58.1374 61.5815 57.3066 62.4898C55.553 61.9185 53.8426 61.2223 52.1885 60.4066C43.6496 56.2495 36.7505 49.3504 32.5934 40.8115C31.7777 39.1574 31.0815 37.447 30.5102 35.6934C31.4216 34.8595 32.6988 33.7838 33.2444 33.325C36.5335 30.566 38.1827 29.1803 38.6105 26.7561C39.4878 21.7372 26.195 3.1558 26.0586 2.9884C25.4532 2.12987 24.6648 1.41647 23.7502 0.899672C22.8357 0.382879 21.8178 0.0755938 20.77 0C15.3822 0 0 19.9516 0 23.3151C0 23.5104 0.2821 43.3628 24.7628 68.2651C49.6372 92.7179 69.4896 93 69.6849 93C73.0453 93 93 77.6178 93 72.23C92.9236 71.1821 92.6157 70.1642 92.0984 69.2496C91.5811 68.3351 90.8673 67.5467 90.0085 66.9414ZM69.3408 86.7814C66.65 86.552 49.972 84.3541 29.14 63.891C8.5777 42.9567 6.4356 26.2508 6.2217 23.6623C10.2851 17.2845 15.1925 11.4856 20.8103 6.4232C20.9343 6.5472 21.0986 6.7332 21.3094 6.975C25.6179 12.8564 29.3293 19.1526 32.3888 25.7703C31.3939 26.7712 30.3423 27.7141 29.2392 28.5944C27.5286 29.8978 25.9578 31.3751 24.552 33.0026C24.3141 33.3363 24.1448 33.714 24.0538 34.1136C23.9628 34.5132 23.952 34.9269 24.0219 35.3307C24.6779 38.1726 25.6827 40.9224 27.0134 43.5178C31.7808 53.3077 39.6917 61.2174 49.4822 65.9835C52.077 67.3161 54.827 68.3219 57.6693 68.9781C58.0731 69.048 58.4868 69.0372 58.8864 68.9462C59.286 68.8552 59.6637 68.6859 59.9974 68.448C61.6306 67.0365 63.1131 65.4595 64.4211 63.7422C65.3945 62.5828 66.6934 61.0359 67.1863 60.5988C73.8208 63.6553 80.1311 67.3713 86.0219 71.6906C86.2792 71.9076 86.4621 72.075 86.583 72.1835C81.5204 77.8031 75.7203 82.7116 69.3408 86.7752V86.7814Z" fill="#020288"/>
<path d="M49.6 24.8001C54.5315 24.805 59.2596 26.7662 62.7467 30.2533C66.2339 33.7405 68.1951 38.4686 68.2 43.4001C68.2 44.2223 68.5266 45.0108 69.108 45.5921C69.6893 46.1735 70.4778 46.5001 71.3 46.5001C72.1222 46.5001 72.9107 46.1735 73.492 45.5921C74.0734 45.0108 74.4 44.2223 74.4 43.4001C74.3926 36.825 71.7774 30.5213 67.1281 25.872C62.4788 21.2227 56.1751 18.6075 49.6 18.6001C48.7778 18.6001 47.9893 18.9267 47.408 19.5081C46.8266 20.0894 46.5 20.8779 46.5 21.7001C46.5 22.5223 46.8266 23.3108 47.408 23.8921C47.9893 24.4735 48.7778 24.8001 49.6 24.8001Z" fill="#E2C4FF"/>
<path d="M49.6 9.3001C58.6406 9.31076 67.3079 12.9069 73.7006 19.2995C80.0932 25.6922 83.6893 34.3595 83.7 43.4001C83.7 44.2223 84.0266 45.0108 84.608 45.5921C85.1893 46.1735 85.9778 46.5001 86.8 46.5001C87.6222 46.5001 88.4107 46.1735 88.992 45.5921C89.5734 45.0108 89.9 44.2223 89.9 43.4001C89.8877 32.7157 85.6379 22.4723 78.0828 14.9173C70.5278 7.36224 60.2844 3.1124 49.6 3.1001C48.7778 3.1001 47.9893 3.4267 47.408 4.00807C46.8266 4.58943 46.5 5.37793 46.5 6.2001C46.5 7.02227 46.8266 7.81077 47.408 8.39213C47.9893 8.97349 48.7778 9.3001 49.6 9.3001Z" fill="#020288"/>
</svg>
