<svg width="51" height="51" viewBox="0 0 51 51" fill="none" xmlns="http://www.w3.org/2000/svg">
<path d="M0.291824 38.7551L12.245 50.7082C12.634 51.0973 13.2644 51.0973 13.6535 50.7082L20.2277 44.134C20.6168 43.7449 20.6168 43.1145 20.2277 42.7254L19.9359 42.4336H34.2944C35.5555 42.4336 36.759 41.9608 37.687 41.0994L49.7712 29.7739C50.928 28.6996 51.3113 26.993 50.7245 25.5276C50.3004 24.4669 49.4343 23.6553 48.3487 23.3008C47.2627 22.9456 46.0849 23.0895 45.116 23.695C45.1098 23.6989 42.4332 25.4553 42.4332 25.4553C42.4149 20.0557 39.1515 14.2978 34.6594 11.7057C34.9158 11.4111 35.1174 11.0625 35.2458 10.6722C35.7598 9.10842 34.9053 7.41584 33.3392 6.89873C33.2902 6.88239 33.2411 6.86799 33.1921 6.85281L35.7563 2.24666C35.9037 1.98168 35.9228 1.66379 35.8072 1.38364C35.6921 1.1031 35.4555 0.890259 35.1641 0.805824C33.3256 0.271202 31.4147 0 29.4844 0C27.5544 0 25.6432 0.271202 23.8047 0.805435C23.5133 0.890259 23.2767 1.10271 23.1611 1.38325C23.046 1.66379 23.0646 1.98168 23.2125 2.24666L25.7767 6.85281C25.7268 6.86838 25.677 6.88316 25.6272 6.89951C24.0634 7.41584 23.2094 9.10803 23.7234 10.673C23.8518 11.0625 24.0549 11.4099 24.3121 11.7049C19.753 14.3356 16.5352 20.1526 16.5352 25.5C16.5352 25.6459 16.5387 25.7899 16.5433 25.9327C14.7593 26.4194 13.1006 27.3062 11.7057 28.5276L8.67847 31.1762L8.27458 30.7723C7.88548 30.3832 7.25514 30.3832 6.86604 30.7723L0.291824 37.3465C-0.0972748 37.7356 -0.0972748 38.366 0.291824 38.7551ZM25.5829 2.40891C26.8591 2.13187 28.1665 1.99219 29.4844 1.99219C30.8023 1.99219 32.1096 2.13187 33.3863 2.40891L31.1665 6.39601C30.0474 6.23998 28.9206 6.23998 27.8027 6.39601L25.5829 2.40891ZM26.249 8.79208C28.293 8.12322 30.5213 8.07264 32.717 8.79131C33.2396 8.96368 33.5248 9.52865 33.3532 10.05C33.224 10.4426 32.8738 10.7092 32.468 10.7329C30.5038 10.1084 28.4638 10.1072 26.5004 10.731C26.5004 10.731 26.5004 10.731 26.5 10.731C26.0907 10.7053 25.7432 10.4376 25.6156 10.0504C25.444 9.52826 25.7292 8.96329 26.249 8.79208ZM26.8 12.7317C28.5272 12.1095 30.3167 12.0948 32.0482 12.6897C36.6761 14.2811 40.4414 20.0277 40.4414 25.5C40.4414 25.9638 40.4122 26.4058 40.3546 26.819L35.5668 29.9602C34.8255 29.042 33.7022 28.4883 32.4727 28.4883H30.4805V27.321C31.64 26.9097 32.4727 25.8023 32.4727 24.5039C32.4727 22.8561 31.1322 21.5156 29.4844 21.5156C28.9354 21.5156 28.4883 21.0689 28.4883 20.5195C28.4883 19.9701 28.9354 19.5234 29.4844 19.5234C29.8373 19.5234 30.2097 19.7036 30.5618 20.0441C30.9571 20.4265 31.5878 20.416 31.9703 20.0211C32.3528 19.6258 32.3423 18.995 31.947 18.6126C31.4415 18.1231 30.9357 17.8464 30.4805 17.6954V16.5352C30.4805 15.985 30.0346 15.5391 29.4844 15.5391C28.9342 15.5391 28.4883 15.985 28.4883 16.5352V17.7025C27.3292 18.1137 26.4961 19.2211 26.4961 20.5195C26.4961 22.1674 27.8365 23.5078 29.4844 23.5078C30.0338 23.5078 30.4805 23.9545 30.4805 24.5039C30.4805 25.0533 30.0338 25.5 29.4844 25.5C29.0587 25.5 28.5996 25.2323 28.191 24.7463C27.8369 24.3253 27.2085 24.2708 26.7875 24.6249C26.3665 24.979 26.3121 25.6074 26.6661 26.0284C27.1984 26.6618 27.8249 27.1031 28.4883 27.3257V28.4883H28.1568C27.6673 28.4883 27.4474 28.1692 27.1027 27.9463C24.9981 26.3689 22.3911 25.5 19.7616 25.5C19.3503 25.5 18.9382 25.5214 18.5281 25.563C18.5281 25.542 18.5273 25.5214 18.5273 25.5C18.5273 20.1044 22.2386 14.3768 26.8 12.7317ZM13.0177 30.0264C14.8893 28.3875 17.2943 27.4922 19.7616 27.4922C21.9631 27.4922 24.1455 28.2194 25.9066 29.5396C26.1607 29.6883 26.8681 30.4805 28.1564 30.4805H32.4727C33.6065 30.4805 34.4648 31.4022 34.4648 32.4727C34.4648 33.5711 33.5711 34.4648 32.4727 34.4648H25.5C24.9498 34.4648 24.5039 34.9108 24.5039 35.4609C24.5039 36.0111 24.9498 36.457 25.5 36.457H32.4727C34.6695 36.457 36.457 34.6695 36.457 32.4727C36.457 32.2443 36.4368 32.019 36.3987 31.7972L46.1802 25.3794C46.6456 25.0918 47.2102 25.0245 47.73 25.1942C48.253 25.3654 48.6705 25.7564 48.8747 26.2677C49.1623 26.9852 48.9817 27.7887 48.4121 28.3175L36.3282 39.6426C35.7734 40.1578 35.0512 40.4414 34.2944 40.4414H17.9437L10.0905 32.5878L13.0177 30.0264ZM7.57031 32.8851L18.1149 43.4297L12.9492 48.5954L2.40463 38.0508L7.57031 32.8851Z" fill="#7F87FC"/>
</svg>
