<svg width="61" height="41" viewBox="0 0 61 41" fill="none" xmlns="http://www.w3.org/2000/svg">
<path d="M38.5236 15.5933C39.1922 15.0744 39.9987 14.7999 40.8563 14.7996L49.1249 14.84L51.5346 14.1285C53.2255 13.6292 54.1913 11.8536 53.6921 10.163C53.1928 8.47212 51.4169 7.50628 49.7266 8.00554L37.0429 11.7512C36.3856 11.9453 35.8082 12.346 35.396 12.8937L28.6602 21.8476C29.0159 22.0483 29.3747 22.2391 29.7363 22.4145L38.5236 15.5933Z" fill="#4683C4"/>
<path d="M13.8868 22.8168C17.5172 26.8641 20.2533 28.8392 25.5174 31.0551C26.9739 31.5416 28.131 31.5464 29.0695 31.2584C29.5854 31.1777 30.0887 30.9695 30.53 30.6268L41.9324 21.7767L57.0564 21.8505H57.0722C58.828 21.8505 60.2555 20.4313 60.2642 18.6738C60.2726 16.911 58.8507 15.4747 57.0876 15.466L40.8616 15.3869C40.1409 15.3871 39.4529 15.6195 38.8888 16.0572L29.8162 23.0993C27.6889 22.1186 25.6469 20.6597 23.8064 19.1762L17.3438 21.3234C17.0749 21.4128 16.7958 21.458 16.5141 21.458C15.3794 21.458 14.3763 20.7342 14.0183 19.6565C13.7966 18.9897 13.8479 18.2767 14.1628 17.6485C14.4774 17.0205 15.0183 16.5524 15.6849 16.331L19.1289 15.1866C18.8848 15.0058 18.6289 14.8424 18.3648 14.6984L26.2706 3.20097C26.91 2.27113 26.6746 0.999094 25.7447 0.359882C24.8144 -0.279585 23.5429 -0.0441262 22.9036 0.885706L12.8147 15.5577C12.7375 15.6696 12.674 15.7868 12.6221 15.9068C11.7017 17.6916 11.7273 20.3808 13.8868 22.8168Z" fill="#4683C4"/>
<path d="M15.8681 16.8879C14.7973 17.2437 14.2176 18.4 14.5736 19.4708C14.8584 20.3279 15.6559 20.8701 16.5122 20.8701C16.7257 20.8701 16.943 20.8364 17.1565 20.7654L26.1658 17.7718C26.618 17.6216 27.0034 17.318 27.2554 16.9135L32.7461 8.10293C33.3429 7.14526 33.0502 5.88523 32.0928 5.28841C31.1349 4.69159 29.8749 4.98425 29.2783 5.94192L24.1776 14.1268L15.8681 16.8879Z" fill="#4683C4"/>
<path d="M8.61902 16.7781C11.6782 15.9276 13.4687 12.7582 12.6182 9.69904C11.7678 6.63985 8.59835 4.84933 5.53916 5.69982C2.47996 6.5503 0.689451 9.71971 1.53993 12.7789C2.39041 15.8381 5.55983 17.6286 8.61902 16.7781Z" fill="#4683C4"/>
<path d="M38.5357 31.1616C38.5231 30.9956 38.4052 30.8567 38.2432 30.8176L34.7852 29.9841C34.5796 29.934 34.3727 30.0609 34.3229 30.2665C34.2731 30.4721 34.3998 30.6792 34.6054 30.7287L36.9043 31.2829L34.3395 32.3228C34.2154 32.3731 34.1268 32.4845 34.1054 32.6165C34.0842 32.7488 34.1332 32.8823 34.2351 32.9692L35.8299 34.3291L33.3423 34.3623C33.2126 34.3641 33.0923 34.4315 33.0231 34.5413C32.9539 34.6511 32.9452 34.7885 32.9996 34.9065L34.3883 37.9051L31.5942 36.3603C31.4849 36.2998 31.3524 36.2965 31.2395 36.3519C31.1271 36.4073 31.0487 36.5143 31.0301 36.6385L30.5952 39.5168L28.9339 36.7907C28.8663 36.6793 28.7465 36.6101 28.6163 36.607C28.4817 36.6019 28.3629 36.6671 28.2899 36.7748L26.7566 39.0324L26.5375 35.4992C26.5301 35.3815 26.469 35.2735 26.3717 35.2068C26.2744 35.1401 26.1519 35.1223 26.0392 35.1578L24.1147 35.7697L25.0458 34.0208C25.1452 33.8341 25.0744 33.602 24.8877 33.5027C24.7008 33.4033 24.4689 33.4741 24.3696 33.6607L22.9967 36.2396C22.9234 36.3772 22.9407 36.5452 23.0406 36.6648C23.1404 36.7845 23.3018 36.8313 23.451 36.7848L25.8035 36.037L26.0617 40.1989C26.0719 40.3626 26.1848 40.5016 26.3429 40.5447C26.501 40.5884 26.669 40.5261 26.7609 40.3905L28.5897 37.698L30.4897 40.8159C30.5599 40.9316 30.6851 40.9998 30.8166 40.9998C30.8416 40.9998 30.8672 40.9972 30.8922 40.9924C31.0503 40.9605 31.1713 40.8333 31.1956 40.6739L31.7058 37.2978L35.0434 39.1432C35.1882 39.2234 35.3685 39.2012 35.4898 39.0883C35.6111 38.9754 35.6461 38.7974 35.5763 38.647L33.9437 35.1215L36.8591 35.0824C37.0187 35.0804 37.1602 34.9795 37.2143 34.8294C37.2685 34.6792 37.224 34.5114 37.1025 34.4077L35.2129 32.7965L38.2982 31.5457C38.4516 31.4824 38.5479 31.3276 38.5357 31.1616Z" fill="#4683C4"/>
</svg>
