<svg width="54" height="54" viewBox="0 0 54 54" fill="none" xmlns="http://www.w3.org/2000/svg">
<mask id="mask0_4106_6182" style="mask-type:luminance" maskUnits="userSpaceOnUse" x="0" y="0" width="54" height="54">
<path d="M0 0H54V54H0V0Z" fill="white"/>
</mask>
<g mask="url(#mask0_4106_6182)">
<path d="M18.2117 34.3063C19.2851 33.4521 19.4584 31.8783 18.6034 30.809C17.7453 29.7368 16.1698 29.5635 15.0995 30.4177L11.1503 33.5746C10.0769 34.4287 9.90361 36.0057 10.7585 37.0748C11.6136 38.1441 13.1921 38.3203 14.2624 37.4632" stroke="black" stroke-width="2.12794" stroke-miterlimit="10" stroke-linecap="round" stroke-linejoin="round"/>
<path d="M17.3729 41.3524C16.2996 42.2095 16.1262 43.7836 16.9813 44.8527C17.8363 45.9249 19.4147 46.0981 20.4851 45.2439L24.4344 42.0871C25.5077 41.2329 25.6811 39.656 24.826 38.5868C23.968 37.5177 22.3925 37.3414 21.3221 38.1986" stroke="black" stroke-width="2.12794" stroke-miterlimit="10" stroke-linecap="round" stroke-linejoin="round"/>
<path d="M20.4847 45.2436C19.4144 46.0978 19.238 47.6747 20.0959 48.7439C20.9511 49.813 22.5266 49.9892 23.5998 49.1321L25.8092 47.364C26.8795 46.5099 27.0559 44.9359 26.2008 43.8668C25.3429 42.7946 23.7673 42.6214 22.697 43.4755" stroke="black" stroke-width="2.12794" stroke-miterlimit="10" stroke-linecap="round" stroke-linejoin="round"/>
<path d="M36.9207 35.2084L39.7429 37.4633C40.8131 38.3204 40.9896 39.8944 40.1346 40.9636C39.2765 42.0327 37.7009 42.209 36.6307 41.3518L33.5693 38.9088" stroke="black" stroke-width="2.12794" stroke-miterlimit="10" stroke-linecap="round" stroke-linejoin="round"/>
<path d="M33.5625 38.9094L36.6238 41.3524C37.6941 42.2095 37.8706 43.7835 37.0125 44.8528C36.1574 45.9249 34.579 46.098 33.5086 45.244L30.4502 42.7979" stroke="black" stroke-width="2.12794" stroke-miterlimit="10" stroke-linecap="round" stroke-linejoin="round"/>
<path d="M30.4523 42.7983L31.9801 44.0198C33.0504 44.8769 33.2268 46.4509 32.3717 47.5202C31.5137 48.5924 29.9382 48.7656 28.8679 47.9114L26.6436 46.1343" stroke="black" stroke-width="2.12794" stroke-miterlimit="10" stroke-linecap="round" stroke-linejoin="round"/>
<path d="M50.909 25.3819L52.7417 28.6194C53.1662 29.372 52.9001 30.3427 52.1438 30.7609L49.3186 32.3258C48.5621 32.744 47.5994 32.4812 47.175 31.7315L39.0311 17.3272C38.6037 16.5745 38.8698 15.6068 39.6261 15.1888L42.4543 13.6238C43.2107 13.2057 44.1703 13.4656 44.5949 14.2181L46.2482 17.139" stroke="black" stroke-width="2.12794" stroke-miterlimit="10" stroke-linecap="round" stroke-linejoin="round"/>
<path d="M42.6543 33.4136C43.321 31.9741 44.774 30.9078 46.4422 30.43" stroke="black" stroke-width="2.12794" stroke-miterlimit="10" stroke-linecap="round" stroke-linejoin="round"/>
<path d="M39.7421 37.4627C40.8123 38.3198 42.3908 38.1436 43.246 37.0743C44.1038 36.0053 43.9276 34.4282 42.8572 33.5741L39.4341 30.8384C37.7718 29.5123 35.8944 28.0429 34.1126 26.7647C30.8897 24.456 29.3022 22.9209 25.2632 23.7333C22.2107 24.3486 19.7413 23.4167 19.0986 20.7736C18.686 19.0742 20.1329 18.2827 23.0001 18.0289L27.5742 17.6197C28.4771 17.5391 29.0152 17.4556 30.4771 17.9662L33.2366 18.9309C35.1021 19.5819 34.851 19.7551 36.7912 19.1937L39.6255 18.3724" stroke="black" stroke-width="2.12794" stroke-miterlimit="10" stroke-linecap="round" stroke-linejoin="round"/>
<path d="M14.3712 15.1893L11.546 13.6242C10.7897 13.2062 9.82701 13.466 9.4025 14.2187L1.25873 28.62C0.831158 29.3726 1.09736 30.3433 1.85357 30.7613L4.67887 32.3263C5.43518 32.7445 6.3979 32.4816 6.82242 31.7321L14.9663 17.3277C15.3937 16.5751 15.1277 15.6074 14.3712 15.1893Z" stroke="black" stroke-width="2.12794" stroke-miterlimit="10" stroke-linecap="round" stroke-linejoin="round"/>
<path d="M19.1093 19.7266L14.3887 18.3587" stroke="black" stroke-width="2.12794" stroke-miterlimit="10" stroke-linecap="round" stroke-linejoin="round"/>
<path d="M11.3446 33.4136C10.6748 31.9741 9.22191 30.9078 7.55371 30.43" stroke="black" stroke-width="2.12794" stroke-miterlimit="10" stroke-linecap="round" stroke-linejoin="round"/>
<path d="M27 9.69727V4.32448" stroke="black" stroke-width="2.12794" stroke-miterlimit="10" stroke-linecap="round" stroke-linejoin="round"/>
<path d="M19.9617 11.9224L17.1514 7.46346" stroke="black" stroke-width="2.12794" stroke-miterlimit="10" stroke-linecap="round" stroke-linejoin="round"/>
<path d="M34.0361 11.9224L36.8434 7.46346" stroke="black" stroke-width="2.12794" stroke-miterlimit="10" stroke-linecap="round" stroke-linejoin="round"/>
<path d="M14.262 37.4633L19.9513 32.9177C21.0216 32.0636 22.6001 32.2397 23.4552 33.3089C24.3102 34.3781 24.1368 35.9521 23.0635 36.8093L17.3772 41.3518C16.3039 42.209 14.7285 42.0327 13.8733 40.9636C13.0153 39.8944 13.1918 38.3204 14.262 37.4633Z" stroke="black" stroke-width="2.12794" stroke-miterlimit="10" stroke-linecap="round" stroke-linejoin="round"/>
<path d="M48.5762 21.2637V21.261" stroke="black" stroke-width="2.12794" stroke-miterlimit="10" stroke-linecap="round" stroke-linejoin="round"/>
</g>
</svg>
