<svg width="47" height="41" viewBox="0 0 47 41" fill="none" xmlns="http://www.w3.org/2000/svg">
<path d="M23.5 41C23.2622 41 23.0246 40.9381 22.8116 40.814C22.5803 40.6794 17.0843 37.4608 11.5095 32.6111C8.20538 29.7368 5.56788 26.886 3.67045 24.1379C1.21507 20.5819 -0.0196826 17.1614 0.00023721 13.9714C0.0235535 10.2595 1.34166 6.76869 3.71203 4.14192C6.12242 1.47088 9.33916 0 12.7699 0C17.1667 0 21.1865 2.48419 23.5001 6.41944C25.8136 2.48428 29.8335 0 34.2303 0C37.4714 0 40.5638 1.32718 42.938 3.73711C45.5435 6.38176 47.0239 10.1185 46.9997 13.989C46.9797 17.1735 45.7218 20.5887 43.261 24.1398C41.3577 26.8865 38.7239 29.7361 35.4327 32.6095C29.8783 37.4587 24.4218 40.6772 24.1922 40.8119C23.9782 40.9372 23.739 41 23.5 41Z" fill="#FF0000"/>
</svg>
