<svg width="45" height="42" viewBox="0 0 45 42" fill="none" xmlns="http://www.w3.org/2000/svg">
<path fill-rule="evenodd" clip-rule="evenodd" d="M27.0404 39.2111C27.0404 37.6708 25.7796 36.4222 24.2242 36.4222H20.7758C20.0289 36.4222 19.3126 36.716 18.7844 37.239C18.2563 37.7621 17.9596 38.4714 17.9596 39.2111C17.9596 40.7513 19.2204 42 20.7758 42H24.2242C25.7796 42 27.0404 40.7513 27.0404 39.2111ZM5.9204 32.0197C6.39079 32.0553 6.95988 32.0757 7.53152 32.0426C7.83606 33.572 8.59263 34.9906 9.72193 36.109C11.2212 37.5936 13.2545 38.4277 15.3747 38.4277H16.4493C16.4019 38.6845 16.3775 38.9466 16.3775 39.2111C16.3775 39.4786 16.4019 39.7405 16.4486 39.9944H15.3747C12.8349 39.9944 10.3991 38.9953 8.60326 37.2169C7.17056 35.7979 6.23865 33.9758 5.9204 32.0197ZM5.11567 30.3526C3.86666 30.1441 2.70439 29.556 1.7971 28.6574C0.646436 27.5179 0 25.9724 0 24.3608V20.6579C0 19.0464 0.646436 17.5009 1.7971 16.3613C2.94776 15.2218 4.50844 14.5816 6.13573 14.5816H6.54416C7.19701 6.42113 14.0913 0 22.5 0C30.9087 0 37.803 6.42113 38.4558 14.5816H38.8643C40.4916 14.5816 42.0522 15.2218 43.2029 16.3613C44.3536 17.5009 45 19.0464 45 20.6579V24.3608C45 25.9724 44.3536 27.5179 43.2029 28.6574C42.0522 29.797 40.4916 30.4372 38.8643 30.4372H37.0536C36.3027 30.4372 35.694 29.8343 35.694 29.0907V15.8514C35.694 8.63514 29.7868 2.78525 22.5 2.78525C15.2132 2.78525 9.30604 8.63514 9.30604 15.8514V29.0907C9.30604 29.6157 9.00255 30.0707 8.55976 30.2927C7.34089 30.7116 5.45062 30.4086 5.11567 30.3526Z" fill="#80CAA7"/>
</svg>
