<svg width="38" height="44" viewBox="0 0 38 44" fill="none" xmlns="http://www.w3.org/2000/svg">
<path d="M31.7093 22.3067C31.5523 22.1462 31.3649 22.0185 31.158 21.9311C30.9511 21.8438 30.7288 21.7985 30.5043 21.7979C30.2797 21.7972 30.0572 21.8413 29.8499 21.9276C29.6425 22.0138 29.4544 22.1405 29.2964 22.3001C29.1385 22.4598 29.0139 22.6493 28.93 22.8576C28.8461 23.0659 28.8044 23.2889 28.8075 23.5134C28.8106 23.738 28.8584 23.9597 28.948 24.1656C29.0376 24.3715 29.1674 24.5576 29.3296 24.7128C30.7654 26.1256 31.9045 27.811 32.6801 29.67C33.4557 31.529 33.8521 33.5242 33.8462 35.5385C33.8462 37.6084 27.9132 40.6154 18.6155 40.6154C9.31775 40.6154 3.38469 37.6069 3.38469 35.5351C3.379 33.5347 3.77015 31.5529 4.53553 29.7047C5.3009 27.8564 6.42528 26.1783 7.84358 24.7675C8.004 24.6111 8.13177 24.4244 8.21947 24.2182C8.30717 24.0121 8.35306 23.7905 8.35448 23.5665C8.3559 23.3425 8.31282 23.1204 8.22774 22.9131C8.14265 22.7059 8.01727 22.5176 7.85885 22.3591C7.70042 22.2007 7.51212 22.0753 7.30486 21.9903C7.09761 21.9052 6.87552 21.8621 6.65148 21.8635C6.42744 21.8649 6.20592 21.9108 5.99975 21.9985C5.79359 22.0862 5.60689 22.214 5.45049 22.3744C3.71659 24.0992 2.34207 26.1508 1.40649 28.4104C0.470921 30.6701 -0.00710916 33.0929 7.98965e-05 35.5385C7.98965e-05 41.0345 9.59038 44.0001 18.6155 44.0001C27.6405 44.0001 37.2308 41.0345 37.2308 35.5385C37.2384 33.0764 36.7538 30.6376 35.8056 28.3653C34.8574 26.0931 33.4647 24.0332 31.7093 22.3067Z" fill="#020288"/>
<path d="M18.6167 23.6923C20.9596 23.6923 23.2499 22.9975 25.198 21.6959C27.1461 20.3942 28.6645 18.5441 29.5611 16.3795C30.4577 14.2149 30.6923 11.833 30.2352 9.53508C29.7781 7.23716 28.6499 5.12638 26.9931 3.46966C25.3364 1.81295 23.2257 0.684712 20.9277 0.227626C18.6298 -0.229461 16.2479 0.00513274 14.0833 0.90174C11.9187 1.79835 10.0686 3.3167 8.76694 5.26479C7.46527 7.21288 6.77051 9.50321 6.77051 11.8462C6.77414 14.9868 8.02337 17.9978 10.2442 20.2186C12.465 22.4394 15.476 23.6887 18.6167 23.6923ZM18.6167 3.38462C20.2902 3.38462 21.9261 3.88088 23.3176 4.81064C24.7091 5.74041 25.7937 7.06192 26.4341 8.60806C27.0745 10.1542 27.2421 11.8555 26.9156 13.4969C26.5891 15.1383 25.7832 16.646 24.5999 17.8294C23.4165 19.0127 21.9088 19.8186 20.2674 20.1451C18.626 20.4716 16.9247 20.304 15.3786 19.6636C13.8324 19.0232 12.5109 17.9386 11.5811 16.5471C10.6514 15.1556 10.1551 13.5197 10.1551 11.8462C10.1578 9.60283 11.0501 7.45214 12.6364 5.86586C14.2226 4.27959 16.3733 3.38726 18.6167 3.38462Z" fill="#020288"/>
</svg>
