<svg width="40" height="38" viewBox="0 0 40 38" fill="none" xmlns="http://www.w3.org/2000/svg">
<path d="M38 34H2C1.46957 34 0.960859 34.2107 0.585786 34.5858C0.210714 34.9609 0 35.4696 0 36C0 36.5304 0.210714 37.0391 0.585786 37.4142C0.960859 37.7893 1.46957 38 2 38H38C38.5304 38 39.0391 37.7893 39.4142 37.4142C39.7893 37.0391 40 36.5304 40 36C40 35.4696 39.7893 34.9609 39.4142 34.5858C39.0391 34.2107 38.5304 34 38 34Z" fill="#020288"/>
<path d="M20.0004 0C19.4699 0 18.9612 0.210714 18.5862 0.585786C18.2111 0.960859 18.0004 1.46957 18.0004 2V23.18L11.4204 16.58C11.0438 16.2034 10.533 15.9918 10.0004 15.9918C9.46777 15.9918 8.95698 16.2034 8.58037 16.58C8.20376 16.9566 7.99219 17.4674 7.99219 18C7.99219 18.5326 8.20376 19.0434 8.58037 19.42L18.5804 29.42C18.7663 29.6075 18.9875 29.7562 19.2312 29.8578C19.4749 29.9593 19.7363 30.0116 20.0004 30.0116C20.2644 30.0116 20.5258 29.9593 20.7695 29.8578C21.0132 29.7562 21.2344 29.6075 21.4204 29.42L31.4204 19.42C31.6068 19.2335 31.7548 19.0121 31.8557 18.7685C31.9566 18.5249 32.0086 18.2637 32.0086 18C32.0086 17.7363 31.9566 17.4751 31.8557 17.2315C31.7548 16.9879 31.6068 16.7665 31.4204 16.58C31.2339 16.3935 31.0125 16.2456 30.7689 16.1447C30.5252 16.0438 30.2641 15.9918 30.0004 15.9918C29.7367 15.9918 29.4755 16.0438 29.2319 16.1447C28.9882 16.2456 28.7668 16.3935 28.5804 16.58L22.0004 23.18V2C22.0004 1.46957 21.7897 0.960859 21.4146 0.585786C21.0395 0.210714 20.5308 0 20.0004 0Z" fill="#020288"/>
</svg>
