<svg width="27" height="44" viewBox="0 0 27 44" fill="none" xmlns="http://www.w3.org/2000/svg">
<path d="M17.2354 3.66699H12.8354C12.2274 3.66699 11.7354 4.15907 11.7354 4.76699C11.7354 5.37491 12.2274 5.86699 12.8354 5.86699H17.2354C17.8433 5.86699 18.3354 5.37491 18.3354 4.76699C18.3354 4.15907 17.8433 3.66699 17.2354 3.66699Z" fill="#020288"/>
<path d="M22 0H4.4C1.97416 0 0 1.97416 0 4.4V39.6C0 42.0258 1.97416 44 4.4 44H22C24.4258 44 26.4 42.0258 26.4 39.6V4.4C26.4 1.97416 24.4258 0 22 0ZM24.2 39.6C24.2 40.8152 23.2152 41.8 22 41.8H4.4C3.18484 41.8 2.2 40.8152 2.2 39.6V4.4C2.2 3.18484 3.18484 2.2 4.4 2.2H22C23.2152 2.2 24.2 3.18484 24.2 4.4V39.6Z" fill="#020288"/>
<path d="M13.2 40.3336C14.415 40.3336 15.4 39.3486 15.4 38.1336C15.4 36.9186 14.415 35.9336 13.2 35.9336C11.985 35.9336 11 36.9186 11 38.1336C11 39.3486 11.985 40.3336 13.2 40.3336Z" fill="#020288"/>
<path d="M9.17129 5.86699C9.7788 5.86699 10.2713 5.37451 10.2713 4.76699C10.2713 4.15948 9.7788 3.66699 9.17129 3.66699C8.56378 3.66699 8.07129 4.15948 8.07129 4.76699C8.07129 5.37451 8.56378 5.86699 9.17129 5.86699Z" fill="#020288"/>
</svg>
