<svg width="43" height="39" viewBox="0 0 43 39" fill="none" xmlns="http://www.w3.org/2000/svg">
<path d="M36.4839 0H6.29032C5.46427 0 4.6463 0.162704 3.88312 0.478822C3.11994 0.794941 2.4265 1.25828 1.84239 1.84239C0.662728 3.02206 0 4.62203 0 6.29032V26.4194C0 28.0877 0.662728 29.6876 1.84239 30.8673C2.4265 31.4514 3.11994 31.9147 3.88312 32.2309C4.6463 32.547 5.46427 32.7097 6.29032 32.7097H20.129V36.4839H16.3548C16.0212 36.4839 15.7012 36.6164 15.4653 36.8523C15.2293 37.0883 15.0968 37.4083 15.0968 37.7419C15.0968 38.0756 15.2293 38.3956 15.4653 38.6315C15.7012 38.8675 16.0212 39 16.3548 39H26.4194C26.753 39 27.073 38.8675 27.3089 38.6315C27.5449 38.3956 27.6774 38.0756 27.6774 37.7419C27.6774 37.4083 27.5449 37.0883 27.3089 36.8523C27.073 36.6164 26.753 36.4839 26.4194 36.4839H22.6452V32.7097H36.4839C38.1522 32.7097 39.7521 32.0469 40.9318 30.8673C42.1115 29.6876 42.7742 28.0877 42.7742 26.4194V6.29032C42.7742 4.62203 42.1115 3.02206 40.9318 1.84239C39.7521 0.662728 38.1522 0 36.4839 0ZM40.2581 26.4194C40.2581 27.4203 39.8604 28.3803 39.1526 29.0881C38.4448 29.7959 37.4848 30.1935 36.4839 30.1935H6.29032C5.28934 30.1935 4.32936 29.7959 3.62156 29.0881C2.91377 28.3803 2.51613 27.4203 2.51613 26.4194V6.29032C2.51613 5.28934 2.91377 4.32936 3.62156 3.62156C4.32936 2.91377 5.28934 2.51613 6.29032 2.51613H36.4839C37.4848 2.51613 38.4448 2.91377 39.1526 3.62156C39.8604 4.32936 40.2581 5.28934 40.2581 6.29032V26.4194Z" fill="#020288"/>
<path d="M26.0515 28.5671C26.2874 28.3312 26.42 28.0112 26.42 27.6775C26.42 27.3438 26.2874 27.0238 26.0515 26.7879C25.8156 26.552 25.4956 26.4194 25.1619 26.4194H17.6135C17.2799 26.4194 16.9599 26.552 16.7239 26.7879C16.488 27.0238 16.3555 27.3438 16.3555 27.6775C16.3555 28.0112 16.488 28.3312 16.7239 28.5671C16.9599 28.803 17.2799 28.9356 17.6135 28.9356H25.1619C25.4956 28.9356 25.8156 28.803 26.0515 28.5671Z" fill="#020288"/>
</svg>
