<svg width="39" height="50" viewBox="0 0 39 50" fill="none" xmlns="http://www.w3.org/2000/svg">
<path d="M29.925 18.2217L23.4912 20.4218" stroke="#020288" stroke-width="2" stroke-miterlimit="10" stroke-linejoin="round"/>
<path d="M15.3251 22.599L5.30664 15.165" stroke="#020288" stroke-width="2" stroke-miterlimit="10" stroke-linejoin="round"/>
<path d="M36.6729 48.647V30.9103C36.6729 29.6204 35.9343 28.5038 34.8574 27.958" stroke="#020288" stroke-width="2" stroke-miterlimit="10" stroke-linecap="round" stroke-linejoin="round"/>
<path d="M31.6359 28.0889C30.688 28.6708 30.0557 29.7166 30.0557 30.9103" stroke="#020288" stroke-width="2" stroke-miterlimit="10" stroke-linecap="round" stroke-linejoin="round"/>
<path d="M29.8554 13.3145L29.896 17.6681C29.9137 19.9802 31.1202 22.0299 32.83 22.6526L34.2307 23.1627C35.4974 23.6239 36.2365 24.942 35.9695 26.2633C35.6558 27.8156 34.0894 28.7745 32.5644 28.348L30.9129 27.8861C28.7122 27.2707 26.744 25.9888 25.3451 24.1817C23.9336 22.3586 23.175 20.1751 23.1522 17.8711L23.1006 14.8105" stroke="#020288" stroke-width="2" stroke-miterlimit="10" stroke-linecap="round" stroke-linejoin="round"/>
<path d="M23.1015 18.1314L15.328 22.5989L20.179 28.9483C21.1482 30.2168 21.6733 31.7689 21.6733 33.3653V48.6528H14.2547V34.5141L10.1181 31.9143C7.64487 30.3599 5.65298 28.1289 4.46292 25.4611C2.76054 21.6449 2.94007 17.6721 5.30949 15.1648C12.0712 8.00949 20.3394 4.5036 25.2178 6.3432" stroke="#020288" stroke-width="2" stroke-miterlimit="10" stroke-linejoin="round"/>
<path d="M25.2831 6.09717C24.8618 7.54582 25.0248 9.15931 25.8683 10.5513C27.4664 13.1886 30.9 14.0311 33.5373 12.4329L35.3081 11.3598C37.9455 9.76168 38.788 6.32814 37.1898 3.6907C35.9421 1.6318 33.5761 0.666979 31.3434 1.10295" stroke="#020288" stroke-width="2" stroke-miterlimit="10" stroke-linecap="round" stroke-linejoin="round"/>
<path d="M3.33496 9.47156L4.57267 7.13852L7.18172 6.7289L8.41943 4.39595L11.0284 3.98633" stroke="#020288" stroke-width="2" stroke-miterlimit="10" stroke-linecap="round" stroke-linejoin="round"/>
<path d="M26.4035 34.9321L27.4931 37.3379L26.2223 39.653L27.3118 42.0587L26.041 44.3738" stroke="#020288" stroke-width="2" stroke-miterlimit="10" stroke-linecap="round" stroke-linejoin="round"/>
<path d="M1 29.4092L1.83519 31.9147L4.34066 32.7497L5.17575 35.2552L7.68123 36.0903" stroke="#020288" stroke-width="2" stroke-miterlimit="10" stroke-linecap="round" stroke-linejoin="round"/>
<path d="M32.2492 1.65185C31.3801 0.782717 29.9708 0.782717 29.1017 1.65185C28.9935 1.75999 28.8989 1.8765 28.8177 1.99932C28.4999 1.87854 28.1554 1.81183 27.7952 1.81183C26.2045 1.81183 24.915 3.10137 24.915 4.692C24.915 6.28264 26.2046 7.57218 27.7952 7.57218C29.1247 7.57218 30.2433 6.67106 30.5749 5.44638C31.1776 5.47351 31.789 5.25946 32.2492 4.79927C33.1183 3.93014 33.1183 2.52098 32.2492 1.65185Z" stroke="#020288" stroke-width="2" stroke-miterlimit="10" stroke-linecap="round" stroke-linejoin="round"/>
</svg>
