<svg width="44" height="29" viewBox="0 0 44 29" fill="none" xmlns="http://www.w3.org/2000/svg">
<path d="M38.6038 0H5.39623C2.42 0 0 2.38331 0 5.30986V23.6901C0 26.6187 2.42208 29 5.39623 29H38.6038C41.58 29 44 26.6167 44 23.6901V5.30986C44 2.38127 41.58 0 38.6038 0ZM41.5094 23.6901C41.5094 25.2668 40.204 26.5493 38.6038 26.5493H5.39623C3.79396 26.5493 2.49057 25.2668 2.49057 23.6901V10.2807H41.5094V23.6901ZM41.5094 7.82796H2.49057V5.30986C2.49057 3.73324 3.79396 2.4507 5.39623 2.4507H38.6038C40.204 2.4507 41.5094 3.73324 41.5094 5.30986V7.82796Z" fill="#020288"/>
<path d="M27.875 19C26.8406 19 26 19.8933 26 21C26 22.1033 26.8406 23 27.875 23H34.125C35.1594 23 36 22.1033 36 21C36 19.8967 35.1594 19 34.125 19H27.875Z" fill="#020288"/>
</svg>
