<svg width="44" height="44" viewBox="0 0 44 44" fill="none" xmlns="http://www.w3.org/2000/svg">
<path d="M29.2607 21.1394L20.123 14.497C19.7876 14.254 19.3425 14.2173 18.9749 14.4062C18.6044 14.5937 18.373 14.9744 18.373 15.3859V28.6663C18.373 29.0822 18.6044 29.4615 18.9749 29.6489C19.1316 29.728 19.3029 29.7675 19.4757 29.7675C19.7012 29.7675 19.9297 29.6958 20.123 29.5537L29.2607 22.9172C29.5491 22.7048 29.7175 22.3768 29.7175 22.0283C29.719 21.6739 29.5462 21.3474 29.2607 21.1394Z" fill="#020288"/>
<path d="M22.0037 0C9.84937 0 0 9.84937 0 22.0037C0 34.1536 9.84937 44 22.0037 44C34.155 44 44.0059 34.1521 44.0059 22.0037C44.0073 9.84937 34.155 0 22.0037 0ZM22.0037 40.3288C11.8819 40.3288 3.67558 32.1269 3.67558 22.0037C3.67558 11.8848 11.8819 3.67265 22.0037 3.67265C32.1239 3.67265 40.3288 11.8834 40.3288 22.0037C40.3303 32.1269 32.1239 40.3288 22.0037 40.3288Z" fill="#020288"/>
</svg>
