<svg width="38" height="45" viewBox="0 0 38 45" fill="none" xmlns="http://www.w3.org/2000/svg">
<path d="M0.447189 38.5052C-0.149063 39.1014 -0.149063 40.069 0.447189 40.6652L3.44501 43.663C3.74313 43.9612 4.13373 44.1102 4.52571 44.1102C4.91632 44.1102 5.30829 43.9612 5.60642 43.663L26.2019 23.0675L21.0441 17.9097L0.447189 38.5052Z" fill="#020288"/>
<path d="M33.7588 15.5156L28.1762 21.0982L23.018 15.9401L28.6007 10.3575L33.7588 15.5156Z" fill="#020288"/>
<path d="M10.8387 16.5282C11.6489 13.3509 12.3059 12.6939 15.4832 11.8838C12.3045 11.075 11.6476 10.418 10.8387 7.24072C10.0286 10.418 9.37158 11.075 6.19434 11.8851C9.37158 12.6953 10.0286 13.3509 10.8387 16.5282Z" fill="#020288"/>
<path d="M23.8241 6.96593C24.4314 4.5823 24.9241 4.09095 27.3063 3.48366C24.9241 2.87498 24.4314 2.38363 23.8241 0C23.2168 2.38363 22.724 2.87498 20.3418 3.48228C22.724 4.09095 23.2168 4.5823 23.8241 6.96593Z" fill="#020288"/>
<path d="M34.5184 27.4966C33.9111 29.8802 33.4184 30.3716 31.0361 30.9789C33.4198 31.5862 33.9111 32.0789 34.5184 34.4611C35.1257 32.0775 35.6184 31.5862 38.0007 30.9789C35.6184 30.3716 35.1257 29.8802 34.5184 27.4966Z" fill="#020288"/>
</svg>
