<svg width="42" height="39" viewBox="0 0 42 39" fill="none" xmlns="http://www.w3.org/2000/svg">
<path d="M41.1907 33.3848L36.0212 28.1824C35.4992 27.6571 34.8053 27.3677 34.067 27.3677C33.4964 27.3677 32.9534 27.5424 32.4947 27.8635L31.7058 27.0697C34.639 23.3352 34.3988 17.8856 30.9741 14.439C30.5898 14.0523 30.1754 13.7155 29.7462 13.4094L31.4184 12.1041C31.8547 11.7635 31.9743 11.1513 31.6986 10.6699L29.1123 6.15394C28.8362 5.67123 28.2486 5.46877 27.7365 5.67949L23.3291 7.49213C22.3962 6.73527 21.3665 6.13308 20.2545 5.69426L19.6114 0.961499C19.5365 0.410581 19.0689 0 18.5162 0H13.3301C12.7774 0 12.3098 0.410581 12.2349 0.961499L11.5918 5.69557C10.4871 6.13482 9.44422 6.74483 8.52154 7.49213L4.10958 5.67949C3.59729 5.46877 3.01031 5.67123 2.7342 6.15394L0.14772 10.6699C-0.12796 11.1513 -0.00836214 11.7635 0.427934 12.1041L4.18038 15.0334C4.09079 15.6355 4.04546 16.236 4.04546 16.8264C4.04546 17.4165 4.09079 18.0169 4.18038 18.6191L0.428366 21.544C-0.00814614 21.8846 -0.12796 22.4968 0.147504 22.9782L2.73398 27.4985C3.00966 27.9808 3.59751 28.1832 4.10958 27.9734L8.52262 26.1603C9.44897 26.9085 10.4915 27.5185 11.5918 27.9565L12.2349 32.691C12.3098 33.2419 12.7774 33.6525 13.3301 33.6525H18.5162C19.0689 33.6525 19.5367 33.2419 19.6114 32.6905L20.0214 29.6689C21.3575 30.346 22.8189 30.6906 24.2824 30.6906C26.358 30.6906 28.4307 30.0044 30.1428 28.6425L30.9324 29.437C30.1866 30.5201 30.2906 32.0208 31.2487 32.9847L36.4184 38.1871C36.957 38.7293 37.6645 39 38.3721 39C39.0798 39 39.7874 38.7289 40.3263 38.1871L41.1907 37.3168C41.7127 36.792 42 36.0938 42 35.3508C42 34.6079 41.7127 33.9097 41.1907 33.3848ZM17.5516 31.4279H14.2946L13.6915 26.9884C13.634 26.5661 13.342 26.2142 12.9391 26.0817C11.6674 25.6641 10.4679 24.962 9.47056 24.0509C9.15494 23.7633 8.70332 23.6825 8.30998 23.845L4.16786 25.5468L2.544 22.7088L6.06222 19.966C6.39554 19.7057 6.55292 19.2778 6.46786 18.862C6.32538 18.1668 6.25608 17.5012 6.25608 16.8264C6.25608 16.1608 6.32733 15.4761 6.46765 14.7909C6.55292 14.3756 6.39576 13.9476 6.06265 13.6873L2.544 10.9406L4.16765 8.10605L8.30998 9.80789C8.7044 9.97039 9.15731 9.88958 9.4725 9.60021C10.4617 8.69216 11.6605 7.99047 12.9391 7.57077C13.342 7.43825 13.634 7.08633 13.6915 6.66402L14.2946 2.22452H17.5519L18.155 6.66402C18.2125 7.08676 18.5052 7.43912 18.9082 7.57077C20.2005 7.99395 21.3686 8.67738 22.3801 9.60152C22.6952 9.88958 23.1466 9.97039 23.5413 9.80789L27.6791 8.10648L29.3023 10.9406L27.6044 12.2658C24.9298 11.2604 21.8976 11.5143 19.4056 13.0237C18.4654 12.1519 17.2274 11.6475 15.9254 11.6475C13.0877 11.6475 10.779 13.9706 10.779 16.8264C10.779 19.3105 12.5295 21.3895 14.8577 21.8863C15.0204 24.0816 15.9266 26.2309 17.5912 27.9061C17.7165 28.0322 17.8509 28.1433 17.9814 28.2609L17.5516 31.4279ZM17.6157 14.4165C17.6077 14.4244 17.5989 14.431 17.5909 14.439C16.1422 15.897 15.2712 17.715 14.9602 19.6089C13.8148 19.2065 12.9896 18.1127 12.9896 16.8264C12.9896 15.1972 14.3065 13.872 15.9254 13.872C16.5385 13.872 17.1268 14.0686 17.6157 14.4165ZM29.4109 26.3332C26.5833 29.1782 21.9822 29.1791 19.1541 26.3332C16.3265 23.4874 16.3265 18.8576 19.1541 16.0118C20.5682 14.5893 22.4254 13.8781 24.2826 13.8781C26.1396 13.8781 27.9969 14.5893 29.4109 16.0118C32.2385 18.8576 32.2385 23.4874 29.4109 26.3332ZM39.6277 35.744L38.7631 36.6143C38.5476 36.8302 38.1968 36.8307 37.9814 36.6143L32.8117 31.4119C32.6707 31.2698 32.6497 31.1042 32.6497 31.0187C32.6497 30.9326 32.6707 30.7671 32.8117 30.625L33.6765 29.7552C33.8172 29.6136 33.9817 29.5923 34.067 29.5923C34.1525 29.5923 34.317 29.6136 34.458 29.7552L39.6277 34.9581C39.7684 35.0993 39.7894 35.2648 39.7894 35.3508C39.7894 35.4369 39.7684 35.6024 39.6277 35.744Z" fill="#020288"/>
</svg>
