<svg width="72" height="72" viewBox="0 0 72 72" fill="none" xmlns="http://www.w3.org/2000/svg">
<path d="M36 50.3955C44.638 50.3955 51.6655 43.3679 51.6655 34.7299V15.6655C51.6655 7.02759 44.638 0 36 0C27.362 0 20.3345 7.02759 20.3345 15.6655V34.7297C20.3345 43.368 27.362 50.3955 36 50.3955ZM24.8345 15.6655C24.8345 9.50878 29.8433 4.5 36 4.5C42.1567 4.5 47.1655 9.50878 47.1655 15.6655V34.7297C47.1655 40.8864 42.1567 45.8954 36 45.8954C29.8433 45.8954 24.8345 40.8864 24.8345 34.7297V15.6655ZM61.8172 39.259C60.7635 45.246 57.6072 50.7313 52.9297 54.7047C48.7716 58.237 43.6282 60.3751 38.25 60.8438V67.5H52.875C54.1177 67.5 55.125 68.5073 55.125 69.75C55.125 70.9927 54.1177 72 52.875 72H19.125C17.8823 72 16.875 70.9927 16.875 69.75C16.875 68.5073 17.8823 67.5 19.125 67.5H33.75V60.8438C28.3718 60.3751 23.2286 58.237 19.0703 54.7047C14.3928 50.7313 11.2366 45.246 10.1829 39.259C9.96764 38.0351 10.785 36.8684 12.0088 36.6531C13.2325 36.4378 14.3994 37.2552 14.6147 38.4789C16.4467 48.8877 25.4405 56.4422 36 56.4422C46.5595 56.4422 55.5533 48.8876 57.3853 38.4789C57.6006 37.2551 58.7672 36.4375 59.9912 36.6531C61.2152 36.8684 62.0325 38.0351 61.8172 39.259ZM61.8511 15.1549V28.1535C61.8511 29.3962 60.8438 30.4035 59.6011 30.4035C58.3584 30.4035 57.3511 29.3962 57.3511 28.1535V15.1549C57.3511 13.9122 58.3584 12.9049 59.6011 12.9049C60.8438 12.9049 61.8511 13.9122 61.8511 15.1549ZM72 18.2506V25.0574C72 26.3001 70.9927 27.3074 69.75 27.3074C68.5073 27.3074 67.5 26.3001 67.5 25.0574V18.2506C67.5 17.0079 68.5073 16.0006 69.75 16.0006C70.9927 16.0006 72 17.0079 72 18.2506ZM10.1489 28.1534V15.1547C10.1489 13.912 11.1562 12.9047 12.3989 12.9047C13.6416 12.9047 14.6489 13.912 14.6489 15.1547V28.1534C14.6489 29.3961 13.6416 30.4034 12.3989 30.4034C11.1562 30.4034 10.1489 29.3961 10.1489 28.1534ZM4.5 18.2506V25.0574C4.5 26.3001 3.4927 27.3074 2.25 27.3074C1.0073 27.3074 0 26.3001 0 25.0574V18.2506C0 17.0079 1.0073 16.0006 2.25 16.0006C3.4927 16.0006 4.5 17.0079 4.5 18.2506Z" fill="white"/>
</svg>
