<svg width="72" height="49" viewBox="0 0 72 49" fill="none" xmlns="http://www.w3.org/2000/svg">
<path d="M46.1213 18.6584C46.9172 18.0407 47.8772 17.7139 48.898 17.7136L58.7405 17.7616L61.6089 16.9147C63.6216 16.3204 64.7713 14.2068 64.177 12.1944C63.5827 10.1817 61.4688 9.03198 59.4567 9.62628L44.3588 14.0849C43.5763 14.3159 42.889 14.7929 42.3984 15.4449L34.3804 26.1031C34.8038 26.342 35.2309 26.5691 35.6614 26.7779L46.1213 18.6584Z" fill="white"/>
<path d="M16.795 27.2576C21.1165 32.0752 24.3734 34.4263 30.6395 37.064C32.3732 37.6431 33.7505 37.6488 34.8677 37.3059C35.4818 37.2099 36.0809 36.9621 36.6062 36.5542L50.179 26.0194L68.1818 26.1073H68.2007C70.2906 26.1073 71.9899 24.418 72.0002 22.326C72.0102 20.2275 70.3176 18.5179 68.2189 18.5076L48.9044 18.4133C48.0465 18.4136 47.2276 18.6903 46.5561 19.2113L35.7566 27.5938C33.2243 26.4265 30.7936 24.6898 28.6028 22.9239L20.9101 25.4799C20.59 25.5863 20.2577 25.6401 19.9224 25.6401C18.5718 25.6401 17.3777 24.7786 16.9515 23.4957C16.6877 22.702 16.7488 21.8533 17.1236 21.1055C17.4981 20.358 18.142 19.8007 18.9354 19.5372L23.035 18.175C22.7443 17.9598 22.4397 17.7652 22.1254 17.5938L31.536 3.90791C32.2972 2.80109 32.0169 1.28692 30.9101 0.526041C29.8026 -0.235147 28.2891 0.0451308 27.5282 1.15195L15.5188 18.6167C15.427 18.7499 15.3513 18.8894 15.2896 19.0323C14.1941 21.1568 14.2244 24.3578 16.795 27.2576Z" fill="white"/>
<path d="M19.1531 20.2002C17.8784 20.6236 17.1884 22.0001 17.6121 23.2747C17.9511 24.2949 18.9004 24.9403 19.9197 24.9403C20.1738 24.9403 20.4325 24.9001 20.6867 24.8156L31.4108 21.2523C31.9492 21.0735 32.4079 20.7121 32.7079 20.2306L39.2437 9.74297C39.9541 8.60301 39.6057 7.10313 38.4661 6.39271C37.3258 5.68229 35.8259 6.03066 35.1158 7.17062L29.0442 16.9135L19.1531 20.2002Z" fill="white"/>
<path d="M10.5243 20.0698C14.1658 19.0574 16.2971 15.2847 15.2847 11.6432C14.2724 8.00173 10.4997 5.8704 6.85816 6.88277C3.21666 7.89514 1.08533 11.6678 2.0977 15.3093C3.11007 18.9508 6.88277 21.0822 10.5243 20.0698Z" fill="white"/>
<path d="M46.1353 37.191C46.1204 36.9935 45.98 36.8281 45.7872 36.7816L41.6709 35.7894C41.4262 35.7298 41.18 35.8809 41.1207 36.1256C41.0614 36.3703 41.2122 36.6168 41.4569 36.6758L44.1934 37.3354L41.1405 38.5733C40.9927 38.6332 40.8873 38.7657 40.8617 38.9229C40.8365 39.0803 40.8949 39.2393 41.0161 39.3427L42.9146 40.9614L39.9534 41.0009C39.799 41.0031 39.6558 41.0833 39.5734 41.214C39.491 41.3447 39.4807 41.5083 39.5455 41.6487L41.1985 45.2182L37.8726 43.3793C37.7425 43.3073 37.5847 43.3034 37.4504 43.3693C37.3166 43.4353 37.2233 43.5627 37.2011 43.7104L36.6834 47.1366L34.706 43.8916C34.6254 43.759 34.4828 43.6766 34.3278 43.673C34.1676 43.6669 34.0262 43.7444 33.9393 43.8727L32.1141 46.56L31.8533 42.3543C31.8445 42.2142 31.7719 42.0856 31.656 42.0062C31.5402 41.9269 31.3943 41.9056 31.2602 41.9479L28.9694 42.6762L30.0777 40.5945C30.196 40.3723 30.1118 40.096 29.8896 39.9777C29.667 39.8595 29.391 39.9437 29.2728 40.1659L27.6385 43.2356C27.5513 43.3994 27.5719 43.5994 27.6908 43.7417C27.8097 43.8843 28.0018 43.9399 28.1793 43.8846L30.9797 42.9945L31.287 47.9486C31.2992 48.1435 31.4335 48.3088 31.6217 48.3602C31.8099 48.4122 32.0099 48.338 32.1193 48.1766L34.2962 44.9716L36.5579 48.683C36.6414 48.8207 36.7904 48.9019 36.947 48.9019C36.9767 48.9019 37.0071 48.8989 37.0369 48.8931C37.2251 48.8551 37.3692 48.7037 37.3981 48.514L38.0054 44.4953L41.9783 46.6919C42.1506 46.7874 42.3652 46.7609 42.5096 46.6266C42.654 46.4922 42.6957 46.2803 42.6127 46.1013L40.6693 41.9047L44.1396 41.8582C44.3296 41.8558 44.498 41.7357 44.5625 41.5569C44.6269 41.3782 44.574 41.1785 44.4293 41.055L42.1801 39.1372L45.8526 37.6482C46.0353 37.5729 46.1499 37.3886 46.1353 37.191Z" fill="white"/>
</svg>
