<svg width="69" height="72" viewBox="0 0 69 72" fill="none" xmlns="http://www.w3.org/2000/svg">
<path d="M60.2289 13.1849L68.0834 0H53.7122V4.20762H60.6792L52.8247 17.3925H68.9999V13.1849H60.2289Z" fill="white"/>
<path d="M48.4892 53.9671C34.5601 53.9671 23.2683 42.6752 23.2683 28.7462C23.2683 20.0419 27.6779 12.3673 34.3849 7.83472C33.6077 7.7782 32.8227 7.74902 32.0309 7.74902C14.3407 7.74902 0 22.0897 0 39.78C0 57.4702 14.3407 71.8109 32.0309 71.8109C46.2482 71.8109 58.3019 62.5479 62.4867 49.728C58.4817 52.4052 53.668 53.9671 48.4892 53.9671Z" fill="white"/>
<path d="M48.232 16.0264H35.2373V20.234H40.8278L34.7666 30.4084H48.094V26.2008H42.1708L48.232 16.0264Z" fill="white"/>
<path d="M56.0545 39.9388L59.8909 33.499H49.0331V37.7066H52.4868L48.6504 44.1464H60.0431V39.9388H56.0545Z" fill="white"/>
</svg>
