<svg width="47" height="63" viewBox="0 0 47 63" fill="none" xmlns="http://www.w3.org/2000/svg">
<path fill-rule="evenodd" clip-rule="evenodd" d="M23.7791 0C11.1085 0 0.806641 10.3937 0.806641 23.2141C0.806641 27.5567 2.71931 32.9442 5.50323 38.318C11.6326 50.1514 21.8426 62.0698 21.8426 62.0698C22.3258 62.6347 23.0337 62.9615 23.7791 62.9615C24.5244 62.9615 25.2323 62.6347 25.7156 62.0698C25.7156 62.0698 35.9255 50.1514 42.0549 38.318C44.8388 32.9442 46.7515 27.5567 46.7515 23.2141C46.7515 10.3937 36.4496 0 23.7791 0ZM23.7791 13.6133C18.6128 13.6133 14.4199 17.8062 14.4199 22.9724C14.4199 28.1387 18.6128 32.3316 23.7791 32.3316C28.9453 32.3316 33.1382 28.1387 33.1382 22.9724C33.1382 17.8062 28.9453 13.6133 23.7791 13.6133Z" fill="white"/>
</svg>
