<svg width="46" height="73" viewBox="0 0 46 73" fill="none" xmlns="http://www.w3.org/2000/svg">
<path d="M7.92147 24.5682L18.6428 16.638C19.8464 15.7411 21.3103 15.2806 22.8009 15.33C24.619 15.3761 26.378 15.998 27.8331 17.1091C29.288 18.2202 30.3671 19.7653 30.9198 21.5297C31.542 23.5156 32.1107 24.8578 32.6258 25.5561C34.1824 27.6708 36.2015 29.387 38.5231 30.5683C40.8447 31.75 43.4048 32.3639 46 32.3621V39.175C42.5454 39.1788 39.1329 38.4028 36.0082 36.9026C32.8834 35.4024 30.1243 33.2151 27.9291 30.4988L25.5975 43.9713L32.492 49.8644L39.9284 70.671L33.6394 73.001L26.8152 53.9113L15.475 44.22C14.5443 43.4549 13.8322 42.4493 13.4127 41.3088C12.9932 40.168 12.8817 38.9335 13.0898 37.7341L14.7925 27.9065L12.5278 29.5825L5.41256 39.5566L0 35.5506L7.8646 24.5273L7.92147 24.5682ZM27.6013 13.6267C25.827 13.6267 24.1253 12.909 22.8705 11.6313C21.6157 10.3536 20.9109 8.62073 20.9109 6.81386C20.9109 5.00698 21.6157 3.27409 22.8705 1.99643C24.1253 0.718747 25.827 0.000976562 27.6013 0.000976562C29.3759 0.000976562 31.0777 0.718747 32.3321 1.99643C33.5869 3.27409 34.2917 5.00698 34.2917 6.81386C34.2917 8.62073 33.5869 10.3536 32.3321 11.6313C31.0777 12.909 29.3759 13.6267 27.6013 13.6267ZM17.6593 58.527L6.90787 71.5737L1.783 67.1964L11.7384 55.1172L14.2339 47.6911L20.2251 52.8008L17.6593 58.527Z" fill="white"/>
</svg>
