<svg width="61" height="72" viewBox="0 0 61 72" fill="none" xmlns="http://www.w3.org/2000/svg">
<path d="M23.6772 13.9765L25.742 19.7107C28.0357 26.0749 33.0473 31.0865 39.4115 33.3802L45.1457 35.445C45.6625 35.6327 45.6625 36.3655 45.1457 36.5507L39.4115 38.6155C33.0473 40.9092 28.0357 45.9208 25.742 52.285L23.6772 58.0192C23.4895 58.536 22.7566 58.536 22.5715 58.0192L20.5067 52.285C18.213 45.9208 13.2013 40.9092 6.83716 38.6155L1.10297 36.5507C0.58612 36.363 0.58612 35.6301 1.10297 35.445L6.83716 33.3802C13.2013 31.0865 18.213 26.0749 20.5067 19.7107L22.5715 13.9765C22.7566 13.4571 23.4895 13.4571 23.6772 13.9765Z" fill="white"/>
<path d="M49.489 0.196686L50.5355 3.09978C51.6978 6.32173 54.2357 8.85969 57.4577 10.022L60.3608 11.0685C60.6231 11.1636 60.6231 11.5339 60.3608 11.6291L57.4577 12.6756C54.2357 13.8379 51.6978 16.3759 50.5355 19.5978L49.489 22.5009C49.3938 22.7632 49.0235 22.7632 48.9284 22.5009L47.8818 19.5978C46.7196 16.3759 44.1816 13.8379 40.9597 12.6756L38.0566 11.6291C37.7943 11.5339 37.7943 11.1636 38.0566 11.0685L40.9597 10.022C44.1816 8.85969 46.7196 6.32173 47.8818 3.09978L48.9284 0.196686C49.0235 -0.0681663 49.3964 -0.0681663 49.489 0.196686Z" fill="white"/>
<path d="M49.489 49.4985L50.5355 52.4016C51.6978 55.6235 54.2357 58.1615 57.4577 59.3237L60.3608 60.3703C60.6231 60.4654 60.6231 60.8357 60.3608 60.9309L57.4577 61.9774C54.2357 63.1397 51.6978 65.6776 50.5355 68.8996L49.489 71.8027C49.3938 72.065 49.0235 72.065 48.9284 71.8027L47.8818 68.8996C46.7196 65.6776 44.1816 63.1397 40.9597 61.9774L38.0566 60.9309C37.7943 60.8357 37.7943 60.4654 38.0566 60.3703L40.9597 59.3237C44.1816 58.1615 46.7196 55.6235 47.8818 52.4016L48.9284 49.4985C49.0235 49.2362 49.3964 49.2362 49.489 49.4985Z" fill="white"/>
</svg>
