<svg width="30" height="19" viewBox="0 0 30 19" fill="none" xmlns="http://www.w3.org/2000/svg">
<path fill-rule="evenodd" clip-rule="evenodd" d="M14.9062 16.4389C13.3273 17.7701 11.2791 18.5737 9.04092 18.5737C4.04776 18.5737 0 14.5741 0 9.64036C0 4.70662 4.04776 0.707031 9.04092 0.707031C11.2791 0.707031 13.3273 1.51065 14.9062 2.84181C16.485 1.51065 18.5332 0.707031 20.7714 0.707031C25.7645 0.707031 29.8123 4.70662 29.8123 9.64036C29.8123 14.5741 25.7645 18.5737 20.7714 18.5737C18.5332 18.5737 16.485 17.7701 14.9062 16.4389Z" fill="#ED0006"/>
<path fill-rule="evenodd" clip-rule="evenodd" d="M14.9062 16.4389C16.8497 14.8004 18.0819 12.3626 18.0819 9.64036C18.0819 6.91816 16.8497 4.48034 14.9062 2.84181C16.4851 1.51065 18.5333 0.707031 20.7715 0.707031C25.7646 0.707031 29.8124 4.70662 29.8124 9.64036C29.8124 14.5741 25.7646 18.5737 20.7715 18.5737C18.5333 18.5737 16.4851 17.7701 14.9062 16.4389Z" fill="#F9A000"/>
<path fill-rule="evenodd" clip-rule="evenodd" d="M14.9062 16.4389C16.8496 14.8004 18.0818 12.3626 18.0818 9.64036C18.0818 6.91815 16.8496 4.48033 14.9062 2.8418C12.9627 4.48033 11.7305 6.91815 11.7305 9.64036C11.7305 12.3626 12.9627 14.8004 14.9062 16.4389Z" fill="#FF5E00"/>
</svg>
