<svg width="31" height="52" viewBox="0 0 31 52" fill="none" xmlns="http://www.w3.org/2000/svg">
<path d="M20.3073 4.27783H15.174C14.4647 4.27783 13.8906 4.85192 13.8906 5.56117C13.8906 6.27041 14.4647 6.8445 15.174 6.8445H20.3073C21.0165 6.8445 21.5906 6.27041 21.5906 5.56117C21.5906 4.85192 21.0165 4.27783 20.3073 4.27783Z" fill="#7F87FC"/>
<path d="M25.8698 0H5.33646C2.50631 0 0.203125 2.30318 0.203125 5.13333V46.2C0.203125 49.0301 2.50631 51.3333 5.33646 51.3333H25.8698C28.6999 51.3333 31.0031 49.0301 31.0031 46.2V5.13333C31.0031 2.30318 28.6999 0 25.8698 0ZM28.4365 46.2C28.4365 47.6177 27.2875 48.7667 25.8698 48.7667H5.33646C3.91878 48.7667 2.76979 47.6177 2.76979 46.2V5.13333C2.76979 3.71565 3.91878 2.56667 5.33646 2.56667H25.8698C27.2875 2.56667 28.4365 3.71565 28.4365 5.13333V46.2Z" fill="#7F87FC"/>
<path d="M15.5979 47.0562C17.0154 47.0562 18.1646 45.907 18.1646 44.4895C18.1646 43.072 17.0154 41.9229 15.5979 41.9229C14.1804 41.9229 13.0312 43.072 13.0312 44.4895C13.0312 45.907 14.1804 47.0562 15.5979 47.0562Z" fill="#7F87FC"/>
<path d="M10.8966 6.8445C11.6054 6.8445 12.1799 6.26993 12.1799 5.56117C12.1799 4.8524 11.6054 4.27783 10.8966 4.27783C10.1878 4.27783 9.61328 4.8524 9.61328 5.56117C9.61328 6.26993 10.1878 6.8445 10.8966 6.8445Z" fill="#7F87FC"/>
</svg>
