<svg width="24" height="28" viewBox="0 0 24 28" fill="none" xmlns="http://www.w3.org/2000/svg">
<path d="M0.282426 24.4443C-0.0941421 24.8209 -0.0941421 25.4319 0.282426 25.8085L2.17573 27.7018C2.36401 27.8901 2.6107 27.9842 2.85826 27.9842C3.10495 27.9842 3.3525 27.8901 3.54079 27.7018L16.5481 14.6945L13.2906 11.437L0.282426 24.4443Z" fill="#020288"/>
<path d="M21.3203 9.9248L17.7946 13.4506L14.5369 10.1929L18.0626 6.66714L21.3203 9.9248Z" fill="#020288"/>
<path d="M6.84631 10.5643C7.35799 8.55768 7.77291 8.14276 9.77953 7.63108C7.77204 7.12027 7.35712 6.70535 6.84631 4.69873C6.33463 6.70535 5.91971 7.12027 3.91309 7.63195C5.91971 8.14363 6.33463 8.55768 6.84631 10.5643Z" fill="#020288"/>
<path d="M15.0479 4.52538C15.4314 3.01997 15.7426 2.70965 17.2472 2.32611C15.7426 1.9417 15.4314 1.63138 15.0479 0.125977C14.6644 1.63138 14.3532 1.9417 12.8486 2.32524C14.3532 2.70965 14.6644 3.01997 15.0479 4.52538Z" fill="#020288"/>
<path d="M21.7999 17.4917C21.4163 18.9971 21.1051 19.3074 19.6006 19.691C21.106 20.0745 21.4163 20.3857 21.7999 21.8902C22.1834 20.3848 22.4946 20.0745 23.9991 19.691C22.4946 19.3074 22.1834 18.9971 21.7999 17.4917Z" fill="#020288"/>
</svg>
