<svg width="48" height="48" viewBox="0 0 48 48" fill="none" xmlns="http://www.w3.org/2000/svg">
<path d="M1.30947 36.9845C0.581994 37.9954 0.13939 39.1831 0.0279123 40.4235C-0.083565 41.664 0.140177 42.9115 0.675755 44.0359C1.21133 45.1603 2.03908 46.1202 3.0725 46.8153C4.10591 47.5103 5.30705 47.9151 6.55038 47.9872C6.68799 47.996 6.82559 48 6.96159 48C7.98881 48.0025 9.00377 47.777 9.93318 47.3395C10.8626 46.902 11.6832 46.2636 12.3359 45.4704C12.9885 44.6771 13.4568 43.7488 13.707 42.7526C13.9572 41.7563 13.983 40.7169 13.7825 39.7094L22.8419 30.6508L23.8596 31.6692C24.1126 31.9268 24.4393 32.0996 24.7946 32.1638C25.15 32.228 25.5165 32.1804 25.8436 32.0276C26.0502 31.9306 26.2815 31.8989 26.5065 31.937C26.7316 31.975 26.9396 32.0809 27.1028 32.2404C27.2633 32.4052 27.3684 32.6158 27.4037 32.843C27.4389 33.0703 27.4026 33.3028 27.2996 33.5085C27.1542 33.8396 27.1139 34.2073 27.184 34.5621C27.2541 34.9168 27.4313 35.2416 27.6917 35.4925L39.1319 46.9328C39.814 47.6132 40.7381 47.9953 41.7016 47.9953C42.665 47.9953 43.5891 47.6132 44.2712 46.9328L46.9433 44.2607C47.6237 43.5786 48.0058 42.6545 48.0058 41.691C48.0058 40.7276 47.6237 39.8035 46.9433 39.1214L35.4542 27.6251C35.1957 27.3784 34.8681 27.2162 34.5151 27.1602C34.1621 27.1042 33.8004 27.157 33.4782 27.3115C33.2761 27.4049 33.0501 27.4337 32.831 27.3939C32.6119 27.3541 32.4105 27.2477 32.2542 27.0891C32.0525 26.8862 31.9378 26.6127 31.9342 26.3267C31.9273 26.1629 31.9599 25.9999 32.0294 25.8515C32.1677 25.5186 32.2071 25.1529 32.143 24.7982C32.0789 24.4435 31.9139 24.1148 31.6677 23.8514L30.6573 22.8362L39.7191 13.7752C40.8066 13.989 41.9295 13.9396 42.994 13.6311C44.0586 13.3226 45.0339 12.764 45.8386 12.0019C46.6433 11.2398 47.2541 10.2963 47.6199 9.25008C47.9858 8.20388 48.0961 7.08536 47.9417 5.98784C47.8931 5.65126 47.7518 5.33484 47.5337 5.07395C47.3155 4.81305 47.0291 4.61795 46.7065 4.51046C46.3839 4.40297 46.0377 4.38732 45.7067 4.46526C45.3756 4.5432 45.0728 4.71166 44.832 4.95182L42.8192 6.96546C42.6922 7.08575 42.5303 7.16252 42.3568 7.18467C42.2656 7.20376 42.1706 7.18654 42.092 7.13667L40.9376 5.98304C40.8969 5.94254 40.8647 5.89441 40.8427 5.84142C40.8208 5.78842 40.8095 5.7316 40.8095 5.67423C40.8096 5.61443 40.8218 5.55526 40.8453 5.50027C40.8688 5.44528 40.9032 5.3956 40.9464 5.35423L43.0592 3.17898C43.3032 2.93532 43.474 2.62811 43.5522 2.29225C43.6304 1.95639 43.6129 1.60533 43.5016 1.27894C43.4014 0.966247 43.2153 0.687986 42.9647 0.47583C42.7141 0.263675 42.4089 0.126149 42.084 0.0789085C40.9829 -0.0858169 39.8583 0.0164328 38.805 0.377048C37.7517 0.737663 36.8005 1.34609 36.0314 2.15109C35.2623 2.95609 34.6979 3.93409 34.3857 5.00276C34.0735 6.07143 34.0226 7.19947 34.2374 8.29189L23.1212 19.4041L8.83523 5.12622L8.45283 3.9854C8.27296 3.42498 7.90936 2.94159 7.4208 2.61336L3.93353 0.286113C3.60296 0.0667868 3.20661 -0.0312323 2.81192 0.00873283C2.41722 0.048698 2.04857 0.224179 1.76868 0.505318L0.51505 1.75895C0.234977 2.03843 0.0600909 2.40612 0.0199987 2.79975C-0.0200936 3.19338 0.0770718 3.58878 0.295045 3.91899L2.6279 7.41507C2.95164 7.89604 3.42703 8.25483 3.97833 8.43429L5.13595 8.8223L19.4131 23.1106L8.29282 34.2261C6.98684 33.9674 5.63403 34.09 4.39579 34.5791C3.15755 35.0682 2.08616 35.9032 1.30947 36.9845ZM30.5365 24.9787C30.5709 25.042 30.5851 25.1143 30.5773 25.1859C30.4106 25.5426 30.3285 25.933 30.3373 26.3267C30.3383 26.7751 30.4515 27.2162 30.6665 27.6098C30.8815 28.0033 31.1915 28.3368 31.5683 28.58C31.9451 28.8231 32.3767 28.9682 32.8239 29.0019C33.2711 29.0357 33.7196 28.957 34.1286 28.7731C34.2086 28.7379 34.2966 28.7299 34.3238 28.7563L45.8105 40.2518C46.1923 40.6338 46.4068 41.1517 46.4068 41.6918C46.4068 42.2319 46.1923 42.7499 45.8105 43.1319L43.1384 45.8039C42.7562 46.1854 42.2383 46.3996 41.6984 46.3996C41.1584 46.3996 40.6405 46.1854 40.2583 45.8039L28.8181 34.3637C28.7739 34.3211 28.7456 34.2646 28.7381 34.2037C28.9874 33.6987 29.0722 33.1282 28.9806 32.5725C28.889 32.0168 28.6256 31.5038 28.2273 31.1056C27.8291 30.7073 27.316 30.4439 26.7603 30.3523C26.2046 30.2606 25.6342 30.3455 25.1292 30.5948C25.074 30.589 25.0219 30.5661 24.9804 30.5292L23.9732 29.5196L29.5253 23.9674L30.5365 24.9787ZM6.13438 7.56148C6.04695 7.47439 5.94078 7.40844 5.82397 7.36867L4.47034 6.91506C4.2601 6.84432 4.07885 6.70662 3.95433 6.52305L1.62547 3.03337C1.61193 3.01118 1.6066 2.98493 1.6104 2.95921C1.6142 2.93348 1.62689 2.90991 1.64627 2.89257L2.9023 1.63654C2.92012 1.61601 2.9448 1.60266 2.97174 1.59898C2.99868 1.5953 3.02603 1.60154 3.04871 1.61654L6.52958 3.93659C6.71933 4.06668 6.86014 4.25648 6.92959 4.47581L7.3784 5.81184C7.41818 5.92865 7.48412 6.03482 7.57121 6.12224L21.9891 20.5354L20.5491 21.9754L6.13438 7.56148ZM9.10964 35.6717L35.683 9.11111C35.7826 9.01166 35.8543 8.8877 35.8906 8.75173C35.927 8.61576 35.9269 8.47259 35.8902 8.33669C35.6604 7.47921 35.6476 6.57801 35.8531 5.71436C36.0585 4.85071 36.4756 4.05176 37.0668 3.38955C37.6581 2.72735 38.4048 2.22271 39.2398 1.92115C40.0748 1.61958 40.9716 1.53057 41.8496 1.66214C41.8816 1.66597 41.9117 1.67977 41.9355 1.70158C41.9594 1.7234 41.9757 1.75213 41.9824 1.78375C41.9976 1.83085 41.9996 1.88125 41.988 1.92939C41.9764 1.97753 41.9518 2.02153 41.9168 2.05655L39.8039 4.2326C39.4223 4.61467 39.2079 5.13261 39.2079 5.67263C39.2079 6.21266 39.4223 6.7306 39.8039 7.11267L40.9576 8.26469C41.1676 8.46442 41.4202 8.6138 41.6964 8.70153C41.9727 8.78926 42.2652 8.81305 42.552 8.7711C43.0786 8.70361 43.5688 8.46596 43.948 8.09429L45.9617 6.08064C45.9922 6.04943 46.031 6.02764 46.0736 6.01785C46.1161 6.00807 46.1606 6.0107 46.2017 6.02544C46.2426 6.03772 46.2791 6.06166 46.3067 6.09433C46.3342 6.12701 46.3517 6.16701 46.3569 6.20944C46.4721 7.02918 46.3954 7.86448 46.1329 8.64954C45.8704 9.43461 45.4292 10.148 44.844 10.7335C44.18 11.397 43.3532 11.8742 42.4465 12.1171C41.5398 12.3601 40.5851 12.3602 39.6783 12.1176C39.5424 12.0807 39.3991 12.0803 39.263 12.1166C39.1269 12.1528 39.0027 12.2244 38.9031 12.324L12.3425 38.8846C12.2434 38.9836 12.1721 39.1068 12.1356 39.242C12.0991 39.3772 12.0987 39.5196 12.1345 39.655C12.3579 40.4744 12.3827 41.3353 12.2067 42.1662C12.0308 42.9971 11.6592 43.7741 11.1228 44.4327C10.5865 45.0912 9.90077 45.6123 9.12267 45.9528C8.34456 46.2933 7.49647 46.4433 6.64879 46.3903C5.88972 46.3483 5.14845 46.1443 4.47478 45.792C3.80111 45.4398 3.21065 44.9473 2.7431 44.3479C2.12448 43.5588 1.73998 42.6119 1.63344 41.6149C1.52689 40.6179 1.70257 39.6111 2.14046 38.7091C2.57836 37.8071 3.26084 37.0463 4.11013 36.5134C4.95942 35.9805 5.94135 35.6969 6.94399 35.6949C7.41431 35.6951 7.88258 35.757 8.33682 35.8789C8.47246 35.9157 8.61544 35.916 8.75119 35.8796C8.88694 35.8432 9.01063 35.7715 9.10964 35.6717Z" fill="black"/>
<path d="M3.52149 41.0397C3.52054 41.7214 3.72189 42.3881 4.10005 42.9554C4.47822 43.5226 5.01618 43.9649 5.64585 44.2262C6.27551 44.4875 6.96856 44.5562 7.63725 44.4234C8.30594 44.2906 8.92019 43.9624 9.40226 43.4804C9.88432 42.9983 10.2125 42.3841 10.3453 41.7154C10.478 41.0467 10.4094 40.3536 10.1481 39.724C9.88676 39.0943 9.44448 38.5563 8.87724 38.1782C8.31 37.8 7.6433 37.5987 6.96156 37.5996C6.05037 37.6034 5.17757 37.9671 4.53325 38.6114C3.88893 39.2557 3.52528 40.1285 3.52149 41.0397ZM6.96156 39.1996C7.32685 39.1987 7.68419 39.3062 7.98831 39.5086C8.29242 39.7109 8.52962 39.999 8.66985 40.3363C8.81008 40.6736 8.84701 41.0449 8.77598 41.4032C8.70495 41.7615 8.52915 42.0907 8.27086 42.349C8.01256 42.6073 7.6834 42.7831 7.32509 42.8541C6.96678 42.9251 6.59545 42.8882 6.25815 42.748C5.92086 42.6077 5.63278 42.3705 5.43043 42.0664C5.22809 41.7623 5.12057 41.405 5.12152 41.0397C5.12487 40.5531 5.31948 40.0874 5.66331 39.7431C6.00714 39.3988 6.47261 39.2036 6.95916 39.1996H6.96156Z" fill="black"/>
<path d="M40.2414 43.4591C40.3923 43.6048 40.5944 43.6854 40.8041 43.6836C41.0139 43.6818 41.2146 43.5976 41.3629 43.4493C41.5112 43.301 41.5954 43.1003 41.5972 42.8906C41.599 42.6808 41.5184 42.4787 41.3726 42.3278L33.6781 34.6333C33.5272 34.4875 33.3251 34.4069 33.1153 34.4087C32.9056 34.4105 32.7049 34.4947 32.5566 34.643C32.4083 34.7913 32.3241 34.992 32.3223 35.2018C32.3205 35.4115 32.4011 35.6136 32.5468 35.7645L40.2414 43.4591Z" fill="black"/>
<path d="M42.4901 41.2119C42.5644 41.2863 42.6526 41.3452 42.7498 41.3855C42.8469 41.4257 42.951 41.4464 43.0561 41.4464C43.1612 41.4464 43.2653 41.4257 43.3624 41.3855C43.4595 41.3452 43.5478 41.2863 43.6221 41.2119C43.6964 41.1376 43.7554 41.0494 43.7956 40.9522C43.8358 40.8551 43.8565 40.751 43.8565 40.6459C43.8565 40.5408 43.8358 40.4367 43.7956 40.3396C43.7554 40.2425 43.6964 40.1542 43.6221 40.0799L35.9299 32.3853C35.7795 32.2349 35.5755 32.1504 35.3627 32.1504C35.15 32.1504 34.9459 32.2349 34.7955 32.3853C34.6451 32.5358 34.5605 32.7398 34.5605 32.9526C34.5605 33.1653 34.6451 33.3693 34.7955 33.5198L42.4901 41.2119Z" fill="black"/>
</svg>
