<svg width="40" height="41" viewBox="0 0 40 41" fill="none" xmlns="http://www.w3.org/2000/svg">
<path d="M27.6846 30.8127C19.7319 30.8127 13.2849 24.3657 13.2849 16.413C13.2849 11.4433 15.8025 7.06158 19.6319 4.47373C19.1881 4.44146 18.7399 4.4248 18.2878 4.4248C8.18772 4.4248 0 12.6125 0 22.7127C0 32.8128 8.18772 41.0005 18.2878 41.0005C26.4051 41.0005 33.2871 35.7119 35.6763 28.3924C33.3897 29.921 30.6414 30.8127 27.6846 30.8127Z" fill="#4CB585"/>
<path d="M34.3875 7.52781L38.872 0H30.6669V2.40231H34.6446L30.1602 9.93012H39.3953V7.52781H34.3875Z" fill="#4CB585"/>
<path d="M27.5395 9.15039H20.1203V11.5527H23.3122L19.8516 17.3617H27.4607V14.9594H24.0789L27.5395 9.15039Z" fill="#4CB585"/>
<path d="M32.0047 22.8027L34.195 19.126H27.9959V21.5283H29.9677L27.7773 25.205H34.2819V22.8027H32.0047Z" fill="#4CB585"/>
</svg>
