<svg width="45" height="51" viewBox="0 0 45 51" fill="none" xmlns="http://www.w3.org/2000/svg">
<path d="M43.6797 31.5771C44.3909 30.7833 44.8242 29.7354 44.8242 28.5889C44.8242 26.1176 42.8131 24.1064 40.3418 24.1064H31.6419C32.5035 21.4917 32.8711 18.0223 32.8711 16.5351V15.042C32.8711 11.7469 30.1896 9.06543 26.8945 9.06543H25.4004C24.7151 9.06543 24.1174 9.5316 23.9511 10.197L23.1373 13.4532C21.9967 18.0133 18.3759 23.0446 14.6286 23.959C13.9722 22.2975 12.3516 21.1182 10.459 21.1182H1.49414C0.669375 21.1182 0 21.7875 0 22.6123V49.5068C0 50.3316 0.669375 51.001 1.49414 51.001H10.459C12.241 51.001 13.7829 49.9561 14.5051 48.446L19.639 50.1573C21.3174 50.7171 23.0665 51.001 24.8366 51.001H37.3535C39.8248 51.001 41.8359 48.9899 41.8359 46.5186C41.8359 45.9358 41.7244 45.378 41.5212 44.867C43.4217 44.3481 44.8242 42.6059 44.8242 40.542C44.8242 39.3955 44.3909 38.3476 43.6797 37.5537C44.3909 36.7598 44.8242 35.7119 44.8242 34.5654C44.8242 33.4189 44.3909 32.371 43.6797 31.5771ZM11.9531 46.5186C11.9531 47.3423 11.2828 48.0127 10.459 48.0127H2.98828V24.1064H10.459C11.2828 24.1064 11.9531 24.7768 11.9531 25.6006V46.5186ZM37.3535 33.0713H40.3418C41.1656 33.0713 41.8359 33.7417 41.8359 34.5654C41.8359 35.3892 41.1656 36.0596 40.3418 36.0596H37.3535C36.5288 36.0596 35.8594 36.7289 35.8594 37.5537C35.8594 38.3785 36.5288 39.0479 37.3535 39.0479H40.3418C41.1656 39.0479 41.8359 39.7182 41.8359 40.542C41.8359 41.3658 41.1656 42.0361 40.3418 42.0361H37.3535C36.5288 42.0361 35.8594 42.7055 35.8594 43.5303C35.8594 44.355 36.5288 45.0244 37.3535 45.0244C38.1773 45.0244 38.8477 45.6948 38.8477 46.5186C38.8477 47.3423 38.1773 48.0127 37.3535 48.0127H24.8366C23.3883 48.0127 21.9569 47.7806 20.5833 47.3224L14.9414 45.4418V26.9533C17.2852 26.508 19.5792 25.0238 21.6501 22.5944C23.6722 20.2217 25.3117 17.076 26.0359 14.1784L26.5668 12.0537H26.8945C28.5421 12.0537 29.8828 13.3945 29.8828 15.042V16.5351C29.8828 18.5413 29.2553 22.3892 28.4524 24.1064H25.4004C24.5756 24.1064 23.9062 24.7758 23.9062 25.6006C23.9062 26.4254 24.5756 27.0947 25.4004 27.0947H40.3418C41.1656 27.0947 41.8359 27.7651 41.8359 28.5889C41.8359 29.4126 41.1656 30.083 40.3418 30.083H37.3535C36.5288 30.083 35.8594 30.7524 35.8594 31.5771C35.8594 32.4019 36.5288 33.0713 37.3535 33.0713Z" fill="#7F87FC"/>
<path d="M7.4707 45.0244C8.29589 45.0244 8.96484 44.3555 8.96484 43.5303C8.96484 42.7051 8.29589 42.0361 7.4707 42.0361C6.64551 42.0361 5.97656 42.7051 5.97656 43.5303C5.97656 44.3555 6.64551 45.0244 7.4707 45.0244Z" fill="#7F87FC"/>
<path d="M28.3887 0.000976562C27.5635 0.000976562 26.8945 0.669953 26.8945 1.49512V4.58301C26.8945 5.40817 27.5635 6.07715 28.3887 6.07715C29.2138 6.07715 29.8828 5.40817 29.8828 4.58301V1.49512C29.8828 0.669953 29.2138 0.000976562 28.3887 0.000976562Z" fill="#7F87FC"/>
<path d="M22.0474 6.5902L19.9344 4.47718C19.351 3.89367 18.4049 3.89367 17.8214 4.47718C17.2379 5.0607 17.2379 6.00669 17.8214 6.5902L19.9344 8.70321C20.5178 9.28662 21.464 9.28672 22.0474 8.70321C22.631 8.1197 22.631 7.17371 22.0474 6.5902Z" fill="#7F87FC"/>
<path d="M38.9547 4.47718C38.3713 3.89367 37.4252 3.89367 36.8417 4.47718L34.7286 6.5901C34.1451 7.17361 34.1451 8.1196 34.7286 8.70311C35.3121 9.28662 36.2581 9.28672 36.8417 8.70321L38.9547 6.5902C39.5382 6.00669 39.5382 5.0607 38.9547 4.47718Z" fill="#7F87FC"/>
</svg>
